<?xml version="1.0" encoding="utf-8"?>
<!-- Generator: Adobe Illustrator 24.0.1, SVG Export Plug-In . SVG Version: 6.00 Build 0)  -->
<svg version="1.1" id="Capa_1" xmlns="http://www.w3.org/2000/svg" xmlns:xlink="http://www.w3.org/1999/xlink" x="0px" y="0px"
	 viewBox="0 0 20 20" style="enable-background:new 0 0 20 20;" xml:space="preserve">
<style type="text/css">
	.st0{fill:#ED1C24;}
	.st1{enable-background:new    ;}
	.st2{clip-path:url(#SVGID_2_);enable-background:new    ;}
	.st3{fill:#A89C20;}
	.st4{fill:#ACA021;}
	.st5{fill:#B1A422;}
	.st6{fill:#A4991F;}
	.st7{fill:#A0951D;}
	.st8{fill:#9C911C;}
	.st9{fill:#988E1B;}
	.st10{fill:#948A19;}
	.st11{clip-path:url(#SVGID_4_);enable-background:new    ;}
	.st12{clip-path:url(#SVGID_6_);enable-background:new    ;}
	.st13{clip-path:url(#SVGID_8_);enable-background:new    ;}
	.st14{clip-path:url(#SVGID_10_);enable-background:new    ;}
	.st15{fill:#A79C20;}
	.st16{clip-path:url(#SVGID_12_);enable-background:new    ;}
	.st17{clip-path:url(#SVGID_14_);enable-background:new    ;}
	.st18{clip-path:url(#SVGID_16_);enable-background:new    ;}
	.st19{clip-path:url(#SVGID_18_);enable-background:new    ;}
	.st20{clip-path:url(#SVGID_20_);enable-background:new    ;}
	.st21{clip-path:url(#SVGID_22_);enable-background:new    ;}
	.st22{clip-path:url(#SVGID_24_);enable-background:new    ;}
	.st23{fill:#918718;}
	.st24{clip-path:url(#SVGID_26_);enable-background:new    ;}
	.st25{fill:#928819;}
	.st26{clip-path:url(#SVGID_28_);enable-background:new    ;}
	.st27{clip-path:url(#SVGID_30_);enable-background:new    ;}
	.st28{clip-path:url(#SVGID_32_);enable-background:new    ;}
	.st29{clip-path:url(#SVGID_34_);enable-background:new    ;}
	.st30{clip-path:url(#SVGID_36_);enable-background:new    ;}
	.st31{clip-path:url(#SVGID_38_);enable-background:new    ;}
	.st32{clip-path:url(#SVGID_40_);enable-background:new    ;}
	.st33{clip-path:url(#SVGID_42_);enable-background:new    ;}
	.st34{fill:#928818;}
	.st35{clip-path:url(#SVGID_44_);enable-background:new    ;}
	.st36{clip-path:url(#SVGID_46_);enable-background:new    ;}
	.st37{clip-path:url(#SVGID_48_);enable-background:new    ;}
	.st38{fill:#DECC2B;}
</style>
<path class="st0" d="M17.32,20H2.68C1.2,20,0,18.8,0,17.32V2.68C0,1.2,1.2,0,2.68,0h14.65C18.8,0,20,1.2,20,2.68v14.65
	C20,18.8,18.8,20,17.32,20z"/>
<g class="st1">
	<g class="st1">
		<defs>
			<path id="SVGID_1_" class="st1" d="M9.12,14.63l-1.14-0.62c0.37,0.2,0.81,0.26,1.34,0.19c0.67-0.09,1.23-0.38,1.65-0.87
				c0.43-0.48,0.65-1.19,0.68-2.12l1.14,0.62c-0.03,0.93-0.25,1.64-0.68,2.12c-0.43,0.48-0.98,0.77-1.65,0.87
				C9.93,14.89,9.49,14.83,9.12,14.63z"/>
		</defs>
		<clipPath id="SVGID_2_">
			<use xlink:href="#SVGID_1_"  style="overflow:visible;"/>
		</clipPath>
		<g class="st2">
			<path class="st3" d="M9.12,14.63l-1.14-0.62c0.02,0.01,0.04,0.02,0.06,0.03l1.14,0.62C9.16,14.65,9.14,14.64,9.12,14.63"/>
			<path class="st4" d="M9.18,14.66l-1.14-0.62c0.11,0.05,0.22,0.09,0.33,0.12l1.14,0.62C9.4,14.76,9.29,14.71,9.18,14.66"/>
			<path class="st5" d="M9.51,14.79l-1.14-0.62c0.28,0.07,0.59,0.08,0.94,0.04c0.3-0.04,0.57-0.12,0.82-0.24l1.14,0.62
				c-0.25,0.12-0.53,0.2-0.82,0.24C10.11,14.87,9.79,14.86,9.51,14.79"/>
			<path class="st4" d="M11.28,14.58l-1.14-0.62c0.13-0.06,0.25-0.13,0.36-0.21l1.14,0.62C11.52,14.45,11.4,14.52,11.28,14.58"/>
			<path class="st3" d="M11.64,14.37l-1.14-0.62c0.09-0.06,0.17-0.13,0.25-0.2l1.14,0.62C11.81,14.25,11.73,14.31,11.64,14.37"/>
			<path class="st6" d="M11.89,14.17l-1.14-0.62c0.08-0.07,0.15-0.14,0.22-0.22l1.14,0.62C12.04,14.03,11.97,14.11,11.89,14.17"/>
			<path class="st7" d="M12.11,13.95l-1.14-0.62c0,0,0,0,0,0c0.05-0.06,0.1-0.12,0.15-0.19l1.14,0.62
				C12.21,13.83,12.16,13.89,12.11,13.95C12.11,13.95,12.11,13.95,12.11,13.95"/>
			<path class="st8" d="M12.26,13.76l-1.14-0.62c0.05-0.07,0.1-0.15,0.14-0.24l1.14,0.62C12.36,13.61,12.31,13.69,12.26,13.76"/>
			<path class="st9" d="M12.4,13.53l-1.14-0.62c0.06-0.11,0.11-0.22,0.16-0.35l1.14,0.62C12.51,13.3,12.46,13.42,12.4,13.53"/>
			<path class="st10" d="M12.56,13.18l-1.14-0.62c0.14-0.38,0.22-0.83,0.23-1.35l1.14,0.62C12.78,12.35,12.7,12.8,12.56,13.18"/>
		</g>
	</g>
	<g class="st1">
		<defs>
			<path id="SVGID_3_" class="st1" d="M8.8,10.64l1.14,0.62c0.01,0,0.01,0.01,0.02,0.02l-1.14-0.62C8.81,10.65,8.81,10.65,8.8,10.64
				z"/>
		</defs>
		<clipPath id="SVGID_4_">
			<use xlink:href="#SVGID_3_"  style="overflow:visible;"/>
		</clipPath>
		<g class="st11">
			<path class="st10" d="M9.96,11.29l-1.14-0.62c-0.01-0.01-0.01-0.02-0.02-0.02l1.14,0.62C9.95,11.27,9.95,11.27,9.96,11.29"/>
		</g>
	</g>
	<g class="st1">
		<defs>
			<path id="SVGID_5_" class="st1" d="M9.92,11.26l-1.14-0.62c-0.06-0.05-0.12-0.11-0.18-0.16l1.14,0.62
				C9.8,11.15,9.86,11.2,9.92,11.26z"/>
		</defs>
		<clipPath id="SVGID_6_">
			<use xlink:href="#SVGID_5_"  style="overflow:visible;"/>
		</clipPath>
		<g class="st12">
			<path class="st10" d="M9.92,11.26l-1.14-0.62c-0.06-0.05-0.12-0.11-0.18-0.16l1.14,0.62C9.8,11.15,9.86,11.2,9.92,11.26"/>
		</g>
	</g>
	<g class="st1">
		<defs>
			<path id="SVGID_7_" class="st1" d="M8.58,10.45l1.14,0.62c0.01,0,0.01,0.01,0.02,0.02L8.6,10.47C8.6,10.46,8.59,10.46,8.58,10.45
				z"/>
		</defs>
		<clipPath id="SVGID_8_">
			<use xlink:href="#SVGID_7_"  style="overflow:visible;"/>
		</clipPath>
		<g class="st13">
			<path class="st10" d="M9.74,11.1L8.6,10.47c0-0.01-0.01-0.02-0.02-0.02l1.14,0.62C9.73,11.08,9.74,11.09,9.74,11.1"/>
		</g>
	</g>
	<g class="st1">
		<defs>
			<path id="SVGID_9_" class="st1" d="M10.67,5.81l1.14,0.62c0.27,0.15,0.49,0.37,0.65,0.68c0.2,0.36,0.31,0.85,0.33,1.47
				c0.02,0.55,0.04,1.09,0.04,1.6c0,0.52-0.02,1.07-0.04,1.65l-1.14-0.62c0.03-0.59,0.04-1.14,0.04-1.65c0-0.52-0.01-1.05-0.04-1.6
				c-0.02-0.62-0.13-1.11-0.33-1.47C11.16,6.18,10.94,5.96,10.67,5.81z"/>
		</defs>
		<clipPath id="SVGID_10_">
			<use xlink:href="#SVGID_9_"  style="overflow:visible;"/>
		</clipPath>
		<g class="st14">
			<path class="st10" d="M12.79,11.83l-1.14-0.62c0.03-0.59,0.04-1.14,0.04-1.65c0-0.52-0.01-1.05-0.04-1.6
				c-0.02-0.62-0.13-1.11-0.33-1.47c-0.17-0.3-0.38-0.53-0.65-0.68l1.14,0.62c0.27,0.15,0.49,0.37,0.65,0.68
				c0.2,0.36,0.31,0.85,0.33,1.47c0.02,0.55,0.04,1.09,0.04,1.6C12.83,10.7,12.82,11.25,12.79,11.83"/>
		</g>
	</g>
	<g>
		<polygon class="st15" points="11.14,7.56 10,6.94 10.02,6.95 11.16,7.57 		"/>
	</g>
	<g class="st1">
		<defs>
			<path id="SVGID_11_" class="st1" d="M9.96,6.92l1.14,0.62c-0.09-0.05-0.17-0.09-0.27-0.1L9.69,6.81
				C9.78,6.83,9.87,6.87,9.96,6.92z"/>
		</defs>
		<clipPath id="SVGID_12_">
			<use xlink:href="#SVGID_11_"  style="overflow:visible;"/>
		</clipPath>
		<g class="st16">
			<path class="st5" d="M10.83,7.43L9.69,6.81c0.01,0,0.03,0.01,0.04,0.01l1.14,0.62C10.86,7.44,10.84,7.44,10.83,7.43"/>
			<path class="st4" d="M10.87,7.44L9.73,6.82C9.79,6.84,9.85,6.86,9.9,6.89l1.14,0.62C10.99,7.48,10.93,7.46,10.87,7.44"/>
			<path class="st3" d="M11.04,7.51L9.9,6.89C9.92,6.9,9.94,6.91,9.96,6.92l1.14,0.62C11.08,7.53,11.06,7.52,11.04,7.51"/>
		</g>
	</g>
	<g class="st1">
		<defs>
			<path id="SVGID_13_" class="st1" d="M10.81,7.43L9.67,6.81c0,0,0.01,0,0.02,0.01l1.14,0.62C10.82,7.43,10.82,7.43,10.81,7.43z"/>
		</defs>
		<clipPath id="SVGID_14_">
			<use xlink:href="#SVGID_13_"  style="overflow:visible;"/>
		</clipPath>
		<g class="st17">
			<polyline class="st3" points="10.81,7.43 9.67,6.81 9.67,6.81 10.81,7.43 10.81,7.43 			"/>
			<polyline class="st4" points="10.81,7.43 9.67,6.81 9.68,6.81 10.82,7.43 10.81,7.43 			"/>
			<polyline class="st5" points="10.82,7.43 9.68,6.81 9.69,6.81 10.83,7.43 10.82,7.43 			"/>
		</g>
	</g>
	<g class="st1">
		<defs>
			<path id="SVGID_15_" class="st1" d="M9.71,11.07l-1.14-0.62c-0.11-0.14-0.22-0.3-0.3-0.47C8.2,9.84,8.15,9.7,8.1,9.55l1.14,0.62
				c0.05,0.15,0.1,0.29,0.17,0.43C9.49,10.77,9.6,10.93,9.71,11.07z"/>
		</defs>
		<clipPath id="SVGID_16_">
			<use xlink:href="#SVGID_15_"  style="overflow:visible;"/>
		</clipPath>
		<g class="st18">
			<path class="st10" d="M9.71,11.07l-1.14-0.62c-0.11-0.14-0.22-0.3-0.3-0.47C8.2,9.84,8.15,9.7,8.1,9.55l1.14,0.62
				c0.05,0.15,0.1,0.29,0.17,0.43C9.49,10.77,9.6,10.93,9.71,11.07"/>
		</g>
	</g>
	<g class="st1">
		<defs>
			<path id="SVGID_17_" class="st1" d="M9.24,10.17L8.1,9.55C8.08,9.47,8.06,9.39,8.04,9.32l1.14,0.62
				C9.2,10.02,9.22,10.09,9.24,10.17z"/>
		</defs>
		<clipPath id="SVGID_18_">
			<use xlink:href="#SVGID_17_"  style="overflow:visible;"/>
		</clipPath>
		<g class="st19">
			<path class="st10" d="M9.24,10.17L8.1,9.55C8.08,9.47,8.06,9.39,8.04,9.32l1.14,0.62C9.2,10.02,9.22,10.09,9.24,10.17"/>
		</g>
	</g>
	<g class="st1">
		<defs>
			<path id="SVGID_19_" class="st1" d="M9.18,9.94L8.04,9.32C8.03,9.24,8.01,9.16,8,9.08L9.14,9.7C9.16,9.78,9.17,9.86,9.18,9.94z"
				/>
		</defs>
		<clipPath id="SVGID_20_">
			<use xlink:href="#SVGID_19_"  style="overflow:visible;"/>
		</clipPath>
		<g class="st20">
			<path class="st10" d="M9.18,9.94L8.04,9.32C8.03,9.24,8.01,9.16,8,9.08L9.14,9.7C9.16,9.78,9.17,9.86,9.18,9.94"/>
		</g>
	</g>
	<g class="st1">
		<defs>
			<path id="SVGID_21_" class="st1" d="M9.14,9.7L8,9.08c0-0.05-0.01-0.11-0.01-0.16l1.14,0.62C9.14,9.59,9.14,9.65,9.14,9.7z"/>
		</defs>
		<clipPath id="SVGID_22_">
			<use xlink:href="#SVGID_21_"  style="overflow:visible;"/>
		</clipPath>
		<g class="st21">
			<path class="st10" d="M9.14,9.7L8,9.08c0-0.05-0.01-0.11-0.01-0.16l1.14,0.62C9.14,9.59,9.14,9.65,9.14,9.7"/>
		</g>
	</g>
	<g class="st1">
		<defs>
			<path id="SVGID_23_" class="st1" d="M9.13,9.54L7.99,8.92c0-0.03,0-0.06-0.01-0.08l1.14,0.62C9.13,9.49,9.14,9.51,9.13,9.54z"/>
		</defs>
		<clipPath id="SVGID_24_">
			<use xlink:href="#SVGID_23_"  style="overflow:visible;"/>
		</clipPath>
		<g class="st22">
			<path class="st10" d="M9.13,9.54L7.99,8.92c0-0.03,0-0.06-0.01-0.08l1.14,0.62C9.13,9.49,9.14,9.51,9.13,9.54"/>
		</g>
	</g>
	<g>
		<polygon class="st23" points="9.12,9.46 7.98,8.84 7.98,8.81 9.12,9.43 		"/>
	</g>
	<g class="st1">
		<defs>
			<path id="SVGID_25_" class="st1" d="M9.12,9.43L7.98,8.81c0.01-0.07,0.01-0.12,0.01-0.17l1.14,0.62
				C9.13,9.32,9.13,9.36,9.12,9.43z"/>
		</defs>
		<clipPath id="SVGID_26_">
			<use xlink:href="#SVGID_25_"  style="overflow:visible;"/>
		</clipPath>
		<g class="st24">
			<path class="st10" d="M9.12,9.43L7.98,8.81c0.01-0.07,0.01-0.12,0.01-0.17l1.14,0.62C9.13,9.32,9.13,9.36,9.12,9.43"/>
		</g>
	</g>
	<g>
		<polygon class="st25" points="9.13,9.27 7.99,8.64 7.99,8.6 9.13,9.22 		"/>
	</g>
	<g class="st1">
		<defs>
			<path id="SVGID_27_" class="st1" d="M9.13,9.22L7.99,8.6C8,8.52,8,8.44,8.01,8.37l1.14,0.62C9.15,9.06,9.14,9.14,9.13,9.22z"/>
		</defs>
		<clipPath id="SVGID_28_">
			<use xlink:href="#SVGID_27_"  style="overflow:visible;"/>
		</clipPath>
		<g class="st26">
			<path class="st10" d="M9.13,9.22L7.99,8.6C8,8.52,8,8.44,8.01,8.37l1.14,0.62C9.15,9.06,9.14,9.14,9.13,9.22"/>
		</g>
	</g>
	<g class="st1">
		<defs>
			<path id="SVGID_29_" class="st1" d="M10.09,7.36L8.95,6.74c0-0.08,0-0.15-0.01-0.23l1.14,0.62C10.09,7.2,10.09,7.28,10.09,7.36z"
				/>
		</defs>
		<clipPath id="SVGID_30_">
			<use xlink:href="#SVGID_29_"  style="overflow:visible;"/>
		</clipPath>
		<g class="st27">
			<path class="st10" d="M10.09,7.36L8.95,6.74c0-0.08,0-0.15-0.01-0.23l1.14,0.62C10.09,7.2,10.09,7.28,10.09,7.36"/>
		</g>
	</g>
	<g class="st1">
		<defs>
			<path id="SVGID_31_" class="st1" d="M9.15,8.99L8.01,8.37C8.03,8.28,8.05,8.2,8.07,8.11l1.14,0.62C9.2,8.82,9.18,8.9,9.15,8.99z"
				/>
		</defs>
		<clipPath id="SVGID_32_">
			<use xlink:href="#SVGID_31_"  style="overflow:visible;"/>
		</clipPath>
		<g class="st28">
			<path class="st10" d="M9.15,8.99L8.01,8.37C8.03,8.28,8.05,8.2,8.07,8.11l1.14,0.62C9.2,8.82,9.18,8.9,9.15,8.99"/>
		</g>
	</g>
	<g class="st1">
		<defs>
			<path id="SVGID_33_" class="st1" d="M9.68,7.87L8.53,7.24C8.58,7.2,8.61,7.16,8.66,7.13c0.06-0.05,0.11-0.1,0.18-0.14
				C8.96,6.9,8.96,6.9,8.95,6.74l1.14,0.62c0.01,0.16,0.01,0.16-0.12,0.25C9.91,7.65,9.85,7.7,9.8,7.75
				C9.76,7.79,9.72,7.83,9.68,7.87z"/>
		</defs>
		<clipPath id="SVGID_34_">
			<use xlink:href="#SVGID_33_"  style="overflow:visible;"/>
		</clipPath>
		<g class="st29">
			<path class="st6" d="M9.68,7.87L8.53,7.24C8.58,7.2,8.61,7.16,8.66,7.13c0,0,0.01-0.01,0.01-0.01l1.14,0.62
				c0,0-0.01,0.01-0.01,0.01C9.76,7.79,9.72,7.83,9.68,7.87"/>
			<path class="st3" d="M9.81,7.74L8.66,7.12C8.71,7.08,8.76,7.04,8.81,7l1.14,0.62C9.9,7.66,9.85,7.7,9.81,7.74"/>
			<path class="st4" d="M9.95,7.62L8.81,7C8.82,7,8.82,6.99,8.83,6.99c0.02-0.01,0.03-0.02,0.04-0.03l1.14,0.62
				C10,7.59,9.99,7.6,9.97,7.61C9.96,7.61,9.96,7.62,9.95,7.62"/>
			<path class="st3" d="M10.02,7.58L8.87,6.96c0.02-0.01,0.03-0.02,0.04-0.03l1.14,0.62C10.05,7.56,10.03,7.57,10.02,7.58"/>
			<path class="st6" d="M10.06,7.55L8.92,6.93c0,0,0.01-0.01,0.01-0.01l1.14,0.62C10.07,7.54,10.06,7.54,10.06,7.55"/>
			<polyline class="st7" points="10.07,7.53 8.93,6.91 8.94,6.9 10.08,7.52 10.07,7.53 			"/>
			<polyline class="st8" points="10.08,7.52 8.94,6.9 8.94,6.89 10.09,7.51 10.08,7.52 			"/>
			<path class="st9" d="M10.09,7.51L8.94,6.89c0,0,0-0.01,0.01-0.01l1.14,0.62C10.09,7.51,10.09,7.51,10.09,7.51"/>
			<path class="st10" d="M10.09,7.5L8.95,6.88c0.01-0.03,0.01-0.07,0-0.15l1.14,0.62C10.1,7.43,10.1,7.47,10.09,7.5"/>
		</g>
	</g>
	<g>
		<polygon class="st25" points="10.09,7.13 8.95,6.51 8.95,6.47 10.09,7.09 		"/>
	</g>
	<g class="st1">
		<defs>
			<path id="SVGID_35_" class="st1" d="M9.63,7.92L8.48,7.3c0.02-0.01,0.04-0.03,0.05-0.06l1.14,0.62C9.66,7.89,9.65,7.91,9.63,7.92
				z"/>
		</defs>
		<clipPath id="SVGID_36_">
			<use xlink:href="#SVGID_35_"  style="overflow:visible;"/>
		</clipPath>
		<g class="st30">
			<polyline class="st4" points="9.63,7.92 8.48,7.3 8.49,7.3 9.63,7.92 9.63,7.92 			"/>
			<path class="st3" d="M9.63,7.92L8.49,7.3c0,0,0.01-0.01,0.01-0.01l1.14,0.62C9.64,7.91,9.64,7.91,9.63,7.92"/>
			<polyline class="st6" points="9.65,7.91 8.5,7.29 8.51,7.28 9.66,7.9 9.65,7.91 			"/>
			<path class="st7" d="M9.66,7.9L8.51,7.28c0,0,0.01-0.01,0.01-0.01l1.14,0.62C9.66,7.89,9.66,7.89,9.66,7.9"/>
			<path class="st8" d="M9.66,7.88L8.52,7.26c0,0,0.01-0.01,0.01-0.01l1.14,0.62C9.67,7.88,9.67,7.88,9.66,7.88"/>
			<polyline class="st9" points="9.67,7.87 8.53,7.25 8.53,7.24 9.68,7.87 9.67,7.87 			"/>
		</g>
	</g>
	<g class="st1">
		<defs>
			<path id="SVGID_37_" class="st1" d="M9.47,8.14L8.33,7.52c0.05-0.07,0.1-0.15,0.16-0.22l1.14,0.62C9.57,8,9.52,8.07,9.47,8.14z"
				/>
		</defs>
		<clipPath id="SVGID_38_">
			<use xlink:href="#SVGID_37_"  style="overflow:visible;"/>
		</clipPath>
		<g class="st31">
			<path class="st7" d="M9.47,8.14L8.33,7.52c0.05-0.07,0.1-0.15,0.16-0.22l1.14,0.62C9.57,8,9.52,8.07,9.47,8.14"/>
		</g>
	</g>
	<g class="st1">
		<defs>
			<path id="SVGID_39_" class="st1" d="M9.22,8.73L8.07,8.11C8.13,7.92,8.2,7.74,8.3,7.57c0.01-0.02,0.02-0.03,0.03-0.05l1.14,0.62
				C9.46,8.16,9.45,8.18,9.44,8.19C9.35,8.36,9.27,8.54,9.22,8.73z"/>
		</defs>
		<clipPath id="SVGID_40_">
			<use xlink:href="#SVGID_39_"  style="overflow:visible;"/>
		</clipPath>
		<g class="st32">
			<path class="st10" d="M9.22,8.73L8.07,8.11c0.02-0.06,0.04-0.12,0.06-0.18l1.14,0.62C9.25,8.61,9.23,8.67,9.22,8.73"/>
			<path class="st9" d="M9.27,8.55L8.13,7.93C8.17,7.82,8.23,7.71,8.28,7.6l1.14,0.62C9.37,8.33,9.32,8.44,9.27,8.55"/>
			<path class="st8" d="M9.42,8.22L8.28,7.6c0-0.01,0.01-0.02,0.01-0.03c0.01-0.02,0.02-0.03,0.03-0.05l1.14,0.62
				C9.46,8.16,9.45,8.18,9.44,8.19C9.43,8.2,9.43,8.21,9.42,8.22"/>
		</g>
	</g>
	<g class="st1">
		<defs>
			<path id="SVGID_41_" class="st1" d="M10.09,7.09L8.95,6.47c0-0.07,0-0.15,0-0.22c0-0.07,0-0.15,0-0.23c0-0.08,0-0.17,0-0.26
				l1.14,0.62c0,0.09,0,0.17,0,0.26c0,0.08,0,0.15,0,0.23C10.09,6.95,10.09,7.02,10.09,7.09z"/>
		</defs>
		<clipPath id="SVGID_42_">
			<use xlink:href="#SVGID_41_"  style="overflow:visible;"/>
		</clipPath>
		<g class="st33">
			<path class="st10" d="M10.09,7.09L8.95,6.47c0-0.07,0-0.15,0-0.22c0-0.07,0-0.15,0-0.23c0-0.08,0-0.17,0-0.26l1.14,0.62
				c0,0.09,0,0.17,0,0.26c0,0.08,0,0.15,0,0.23C10.09,6.95,10.09,7.02,10.09,7.09"/>
		</g>
	</g>
	<g>
		<polygon class="st34" points="10.07,6.39 8.93,5.76 8.93,5.72 10.07,6.35 		"/>
	</g>
	<g class="st1">
		<defs>
			<path id="SVGID_43_" class="st1" d="M6.68,17.21l-1.14-0.62c-0.53-0.29-0.97-0.69-1.31-1.21c-0.48-0.73-0.75-1.7-0.8-2.89
				l1.14,0.62c0.05,1.2,0.31,2.16,0.8,2.89C5.71,16.52,6.15,16.92,6.68,17.21z"/>
		</defs>
		<clipPath id="SVGID_44_">
			<use xlink:href="#SVGID_43_"  style="overflow:visible;"/>
		</clipPath>
		<g class="st35">
			<path class="st10" d="M6.68,17.21l-1.14-0.62c-0.53-0.29-0.97-0.69-1.31-1.21c-0.48-0.73-0.75-1.7-0.8-2.89l1.14,0.62
				c0.05,1.2,0.31,2.16,0.8,2.89C5.71,16.52,6.15,16.92,6.68,17.21"/>
		</g>
	</g>
	<g class="st1">
		<defs>
			<path id="SVGID_45_" class="st1" d="M4.57,13.11l-1.14-0.62c-0.01-0.57-0.02-1.14-0.02-1.7c0-0.57,0.01-1.15,0.02-1.73l1.14,0.62
				c-0.01,0.58-0.02,1.16-0.02,1.73C4.56,11.97,4.56,12.54,4.57,13.11z"/>
		</defs>
		<clipPath id="SVGID_46_">
			<use xlink:href="#SVGID_45_"  style="overflow:visible;"/>
		</clipPath>
		<g class="st36">
			<path class="st10" d="M4.57,13.11l-1.14-0.62c-0.01-0.57-0.02-1.14-0.02-1.7c0-0.57,0.01-1.15,0.02-1.73l1.14,0.62
				c-0.01,0.58-0.02,1.16-0.02,1.73C4.56,11.97,4.56,12.54,4.57,13.11"/>
		</g>
	</g>
	<g class="st1">
		<defs>
			<path id="SVGID_47_" class="st1" d="M13.05,3.25l1.14,0.62c-0.22-0.12-0.45-0.22-0.69-0.3c-0.87-0.29-1.88-0.35-3.03-0.19
				C9.32,3.55,8.3,3.9,7.44,4.43C6.57,4.96,5.89,5.67,5.4,6.55C4.9,7.43,4.63,8.47,4.58,9.67L3.44,9.05
				c0.05-1.2,0.32-2.24,0.82-3.12c0.49-0.88,1.17-1.59,2.04-2.12c0.87-0.53,1.88-0.88,3.04-1.04c1.15-0.16,2.15-0.1,3.03,0.19
				C12.61,3.04,12.84,3.13,13.05,3.25z"/>
		</defs>
		<clipPath id="SVGID_48_">
			<use xlink:href="#SVGID_47_"  style="overflow:visible;"/>
		</clipPath>
		<g class="st37">
			<path class="st10" d="M4.58,9.67L3.44,9.05c0.04-0.84,0.18-1.6,0.43-2.28l1.14,0.62C4.76,8.08,4.62,8.84,4.58,9.67"/>
			<path class="st9" d="M5.01,7.39L3.87,6.77c0.1-0.27,0.21-0.52,0.34-0.77l1.14,0.62C5.22,6.87,5.11,7.12,5.01,7.39"/>
			<path class="st8" d="M5.36,6.63L4.21,6.01c0.01-0.03,0.03-0.05,0.04-0.08c0.1-0.18,0.21-0.35,0.33-0.52l1.14,0.62
				C5.61,6.2,5.5,6.37,5.4,6.55C5.38,6.58,5.37,6.6,5.36,6.63"/>
			<path class="st7" d="M5.72,6.03L4.58,5.41c0.12-0.17,0.25-0.34,0.39-0.5l1.14,0.62C5.98,5.69,5.85,5.86,5.72,6.03"/>
			<path class="st6" d="M6.12,5.53L4.98,4.91C5.12,4.75,5.27,4.6,5.43,4.45l1.14,0.62C6.41,5.22,6.26,5.37,6.12,5.53"/>
			<path class="st3" d="M6.57,5.07L5.43,4.45c0.18-0.16,0.38-0.32,0.59-0.46l1.14,0.62C6.95,4.75,6.75,4.91,6.57,5.07"/>
			<path class="st4" d="M7.16,4.61L6.02,3.99C6.11,3.93,6.2,3.87,6.29,3.81C6.5,3.68,6.72,3.56,6.95,3.45l1.14,0.62
				C7.86,4.18,7.65,4.3,7.44,4.43C7.34,4.49,7.25,4.55,7.16,4.61"/>
			<path class="st5" d="M8.09,4.07L6.95,3.45c0.71-0.34,1.51-0.56,2.38-0.69c1.01-0.14,1.92-0.11,2.71,0.1l1.14,0.62
				c-0.8-0.21-1.7-0.24-2.71-0.1C9.6,3.51,8.8,3.74,8.09,4.07"/>
			<path class="st4" d="M13.19,3.48l-1.14-0.62c0.11,0.03,0.21,0.06,0.31,0.09c0.19,0.06,0.37,0.14,0.55,0.22l1.14,0.62
				c-0.17-0.09-0.36-0.16-0.55-0.22C13.4,3.54,13.3,3.51,13.19,3.48"/>
			<path class="st3" d="M14.05,3.8l-1.14-0.62c0.05,0.02,0.1,0.05,0.15,0.08l1.14,0.62C14.15,3.85,14.1,3.82,14.05,3.8"/>
		</g>
	</g>
	<g>
		<path class="st38" d="M16.35,8.02c0.02,0.58,0.04,1.15,0.03,1.72c0,0.57-0.01,1.14-0.04,1.71c-0.05,1.21-0.32,2.25-0.81,3.12
			c-0.49,0.87-1.16,1.56-2.03,2.08c-0.87,0.52-1.89,0.86-3.06,1.02c-1.17,0.16-2.19,0.11-3.06-0.16C6.53,17.24,5.85,16.73,5.37,16
			c-0.48-0.73-0.75-1.7-0.8-2.89c-0.01-0.57-0.02-1.14-0.02-1.7c0-0.57,0.01-1.15,0.02-1.73C4.63,8.47,4.9,7.43,5.4,6.55
			c0.49-0.88,1.17-1.59,2.04-2.12C8.3,3.9,9.32,3.55,10.48,3.39c1.15-0.16,2.15-0.1,3.03,0.19c0.87,0.29,1.56,0.8,2.05,1.55
			C16.05,5.87,16.32,6.83,16.35,8.02z M12.79,11.83c0.03-0.59,0.04-1.14,0.04-1.65c0-0.52-0.01-1.05-0.04-1.6
			c-0.02-0.62-0.13-1.11-0.33-1.47c-0.2-0.36-0.47-0.61-0.81-0.75c-0.26-0.1-0.56-0.15-0.88-0.14c0,0.02,0,0.04,0,0.05
			c0,0.08,0,0.16,0,0.24c0,0.08,0,0.16,0,0.24c0,0.08,0,0.16,0,0.24c0,0.08,0,0.16,0,0.24c0,0.05,0,0.1,0,0.15
			c0,0.03,0,0.04,0.03,0.05c0.11,0.02,0.21,0.07,0.31,0.13l0.02,0.01c0.04,0.03,0.09,0.06,0.13,0.1c0.03,0.03,0.07,0.07,0.1,0.11
			c0.03,0.03,0.05,0.06,0.08,0.09c0.05,0.08,0.1,0.15,0.14,0.23c0.03,0.07,0.06,0.15,0.1,0.22c0.06,0.19,0.1,0.4,0.12,0.61
			c0,0.02,0,0.03,0.01,0.05l0,0.08l0,0.16c-0.01,0.03-0.01,0.05-0.01,0.08c0,0.03,0,0.05,0,0.06c0,0.02-0.01,0.04-0.01,0.07l0,0.03
			c-0.02,0.09-0.04,0.19-0.05,0.28c-0.02,0.07-0.04,0.15-0.06,0.23c-0.02,0.06-0.04,0.11-0.06,0.17c-0.01,0.04-0.03,0.07-0.04,0.11
			c-0.04,0.1-0.09,0.2-0.13,0.29c-0.02,0.01-0.02,0.03-0.03,0.05c-0.04,0.07-0.08,0.14-0.13,0.22c-0.03,0.04-0.05,0.07-0.08,0.11
			c-0.04,0.05-0.08,0.09-0.11,0.14c-0.03,0.03-0.05,0.06-0.08,0.09c-0.07,0.06-0.15,0.12-0.23,0.17c-0.07,0.03-0.13,0.06-0.2,0.09
			c-0.05,0.01-0.1,0.02-0.16,0.02c-0.07-0.01-0.14-0.02-0.22-0.02c-0.03-0.01-0.04-0.02-0.05-0.01c-0.08-0.04-0.15-0.07-0.22-0.11
			c-0.01-0.02-0.02-0.03-0.04-0.03C9.86,11.2,9.8,11.15,9.74,11.1c-0.01-0.01-0.01-0.02-0.03-0.03c-0.11-0.14-0.22-0.3-0.3-0.47
			c-0.07-0.14-0.12-0.28-0.17-0.43c-0.02-0.08-0.04-0.16-0.06-0.23C9.17,9.86,9.16,9.78,9.14,9.7c0-0.05-0.01-0.11-0.01-0.16
			c0-0.03,0-0.06-0.01-0.08l0-0.03c0.01-0.07,0.01-0.12,0.01-0.17l0-0.05c0.01-0.08,0.02-0.15,0.03-0.23
			C9.18,8.9,9.2,8.82,9.22,8.73c0.05-0.19,0.13-0.37,0.22-0.54c0.01-0.02,0.02-0.03,0.03-0.05C9.52,8.07,9.57,8,9.63,7.92
			c0.02-0.01,0.04-0.03,0.05-0.06C9.72,7.83,9.76,7.79,9.8,7.75c0.06-0.05,0.11-0.1,0.18-0.14c0.13-0.09,0.13-0.09,0.12-0.25
			c0-0.08,0-0.15-0.01-0.23l0-0.04c0-0.07,0-0.15,0-0.22c0-0.07,0-0.15,0-0.23c0-0.08,0-0.17,0-0.26l0-0.04
			C9.8,6.41,9.54,6.53,9.3,6.69C8.96,6.92,8.69,7.25,8.48,7.67c-0.2,0.42-0.32,0.94-0.35,1.57c-0.01,0.56-0.02,1.1-0.02,1.61
			c0,0.52,0,1.06,0.02,1.65c0.04,0.92,0.26,1.56,0.68,1.93c0.42,0.37,0.97,0.5,1.64,0.4c0.67-0.09,1.23-0.38,1.65-0.87
			C12.54,13.47,12.76,12.76,12.79,11.83"/>
	</g>
</g>
</svg>
