<?xml version="1.0" encoding="utf-8"?>
<!-- Generator: Adobe Illustrator 24.0.1, SVG Export Plug-In . SVG Version: 6.00 Build 0)  -->
<svg version="1.1" id="Capa_1" xmlns="http://www.w3.org/2000/svg" xmlns:xlink="http://www.w3.org/1999/xlink" x="0px" y="0px"
	 viewBox="0 0 20 6" style="enable-background:new 0 0 20 6;" xml:space="preserve">
<style type="text/css">
	.st0{enable-background:new    ;}
	.st1{clip-path:url(#SVGID_2_);enable-background:new    ;}
	.st2{fill:#948A19;}
	.st3{fill:#908618;}
	.st4{clip-path:url(#SVGID_4_);enable-background:new    ;}
	.st5{fill:#B1A422;}
	.st6{fill:#ACA021;}
	.st7{fill:#A89C20;}
	.st8{fill:#A4991F;}
	.st9{fill:#A0951D;}
	.st10{clip-path:url(#SVGID_6_);enable-background:new    ;}
	.st11{fill:#9C911C;}
	.st12{fill:#988E1B;}
	.st13{clip-path:url(#SVGID_8_);enable-background:new    ;}
	.st14{fill:#BBAD25;}
	.st15{clip-path:url(#SVGID_10_);enable-background:new    ;}
	.st16{fill:#A8A8A8;}
	.st17{fill:#A3A3A3;}
	.st18{fill:#9E9E9E;}
	.st19{clip-path:url(#SVGID_12_);enable-background:new    ;}
	.st20{fill:#928818;}
	.st21{fill:#DECC2B;}
	.st22{clip-path:url(#SVGID_14_);enable-background:new    ;}
	.st23{fill:#B4B4B4;}
	.st24{clip-path:url(#SVGID_16_);enable-background:new    ;}
	.st25{clip-path:url(#SVGID_18_);enable-background:new    ;}
	.st26{fill:#999999;}
	.st27{fill:#949494;}
	.st28{fill:#8F8F8F;}
	.st29{fill:#8A8A8A;}
	.st30{fill:#858585;}
	.st31{clip-path:url(#SVGID_20_);enable-background:new    ;}
	.st32{clip-path:url(#SVGID_22_);enable-background:new    ;}
	.st33{clip-path:url(#SVGID_24_);enable-background:new    ;}
	.st34{clip-path:url(#SVGID_26_);enable-background:new    ;}
	.st35{clip-path:url(#SVGID_28_);enable-background:new    ;}
	.st36{clip-path:url(#SVGID_30_);enable-background:new    ;}
	.st37{clip-path:url(#SVGID_32_);enable-background:new    ;}
	.st38{clip-path:url(#SVGID_34_);enable-background:new    ;}
	.st39{clip-path:url(#SVGID_36_);enable-background:new    ;}
	.st40{clip-path:url(#SVGID_38_);enable-background:new    ;}
	.st41{fill:#BAAD25;}
	.st42{clip-path:url(#SVGID_40_);enable-background:new    ;}
	.st43{clip-path:url(#SVGID_42_);enable-background:new    ;}
	.st44{clip-path:url(#SVGID_44_);enable-background:new    ;}
	.st45{clip-path:url(#SVGID_46_);enable-background:new    ;}
	.st46{clip-path:url(#SVGID_48_);enable-background:new    ;}
	.st47{clip-path:url(#SVGID_50_);enable-background:new    ;}
	.st48{clip-path:url(#SVGID_52_);enable-background:new    ;}
	.st49{clip-path:url(#SVGID_54_);enable-background:new    ;}
	.st50{clip-path:url(#SVGID_56_);enable-background:new    ;}
	.st51{clip-path:url(#SVGID_58_);enable-background:new    ;}
	.st52{fill:#DFDFDF;}
	.st53{clip-path:url(#SVGID_60_);enable-background:new    ;}
	.st54{clip-path:url(#SVGID_62_);enable-background:new    ;}
	.st55{clip-path:url(#SVGID_64_);enable-background:new    ;}
	.st56{clip-path:url(#SVGID_66_);enable-background:new    ;}
	.st57{clip-path:url(#SVGID_68_);enable-background:new    ;}
	.st58{fill:#928819;}
	.st59{clip-path:url(#SVGID_70_);enable-background:new    ;}
	.st60{clip-path:url(#SVGID_72_);enable-background:new    ;}
	.st61{clip-path:url(#SVGID_74_);enable-background:new    ;}
	.st62{clip-path:url(#SVGID_76_);enable-background:new    ;}
	.st63{clip-path:url(#SVGID_78_);enable-background:new    ;}
	.st64{clip-path:url(#SVGID_80_);enable-background:new    ;}
	.st65{fill:#918818;}
	.st66{clip-path:url(#SVGID_82_);enable-background:new    ;}
	.st67{clip-path:url(#SVGID_84_);enable-background:new    ;}
	.st68{clip-path:url(#SVGID_86_);enable-background:new    ;}
	.st69{clip-path:url(#SVGID_88_);enable-background:new    ;}
	.st70{clip-path:url(#SVGID_90_);enable-background:new    ;}
	.st71{clip-path:url(#SVGID_92_);enable-background:new    ;}
	.st72{fill:#A79C20;}
	.st73{clip-path:url(#SVGID_94_);enable-background:new    ;}
	.st74{clip-path:url(#SVGID_96_);enable-background:new    ;}
	.st75{clip-path:url(#SVGID_98_);enable-background:new    ;}
	.st76{clip-path:url(#SVGID_100_);enable-background:new    ;}
	.st77{clip-path:url(#SVGID_102_);enable-background:new    ;}
	.st78{clip-path:url(#SVGID_104_);enable-background:new    ;}
	.st79{clip-path:url(#SVGID_106_);enable-background:new    ;}
	.st80{fill:#918718;}
	.st81{clip-path:url(#SVGID_108_);enable-background:new    ;}
	.st82{clip-path:url(#SVGID_110_);enable-background:new    ;}
	.st83{clip-path:url(#SVGID_112_);enable-background:new    ;}
	.st84{clip-path:url(#SVGID_114_);enable-background:new    ;}
	.st85{clip-path:url(#SVGID_116_);enable-background:new    ;}
	.st86{clip-path:url(#SVGID_118_);enable-background:new    ;}
	.st87{clip-path:url(#SVGID_120_);enable-background:new    ;}
	.st88{clip-path:url(#SVGID_122_);enable-background:new    ;}
	.st89{clip-path:url(#SVGID_124_);enable-background:new    ;}
	.st90{clip-path:url(#SVGID_126_);enable-background:new    ;}
	.st91{clip-path:url(#SVGID_128_);enable-background:new    ;}
	.st92{clip-path:url(#SVGID_130_);enable-background:new    ;}
</style>
<g>
	<g class="st0">
		<g class="st0">
			<defs>
				<path id="SVGID_1_" class="st0" d="M18.88,5.62l-0.36-0.16c-0.01,0-0.02-0.01-0.02-0.01c-0.04-0.03-0.06-0.05-0.08-0.08
					l0.36,0.16c0.02,0.03,0.04,0.05,0.08,0.08C18.87,5.62,18.88,5.62,18.88,5.62z"/>
			</defs>
			<clipPath id="SVGID_2_">
				<use xlink:href="#SVGID_1_"  style="overflow:visible;"/>
			</clipPath>
			<g class="st1">
				<path class="st2" d="M18.88,5.62l-0.36-0.16c-0.01,0-0.02-0.01-0.02-0.01c-0.04-0.03-0.06-0.05-0.08-0.08l0.36,0.16
					c0.02,0.03,0.04,0.05,0.08,0.08C18.87,5.62,18.88,5.62,18.88,5.62"/>
			</g>
		</g>
		<g>
			<polygon class="st3" points="18.78,5.53 18.42,5.37 17.69,4.34 18.05,4.5 			"/>
		</g>
		<g class="st0">
			<defs>
				<path id="SVGID_3_" class="st0" d="M18.1,3.77l-0.36-0.16c0.19-0.03,0.33-0.09,0.42-0.18l0.36,0.16
					C18.43,3.68,18.29,3.74,18.1,3.77z"/>
			</defs>
			<clipPath id="SVGID_4_">
				<use xlink:href="#SVGID_3_"  style="overflow:visible;"/>
			</clipPath>
			<g class="st4">
				<path class="st5" d="M18.1,3.77l-0.36-0.16c0.08-0.01,0.16-0.03,0.22-0.06l0.36,0.16C18.26,3.74,18.18,3.76,18.1,3.77"/>
				<path class="st6" d="M18.32,3.71l-0.36-0.16c0.03-0.01,0.06-0.03,0.09-0.04l0.36,0.16C18.38,3.69,18.35,3.7,18.32,3.71"/>
				<path class="st7" d="M18.41,3.67l-0.36-0.16c0.02-0.01,0.04-0.02,0.05-0.04l0.36,0.16C18.45,3.65,18.43,3.66,18.41,3.67"/>
				<path class="st8" d="M18.46,3.64l-0.36-0.16c0.01-0.01,0.03-0.02,0.04-0.03l0.36,0.16C18.49,3.61,18.48,3.63,18.46,3.64"/>
				<path class="st9" d="M18.51,3.6l-0.36-0.16c0,0,0.01-0.01,0.01-0.01l0.36,0.16C18.51,3.59,18.51,3.6,18.51,3.6"/>
			</g>
		</g>
		<g class="st0">
			<defs>
				<path id="SVGID_5_" class="st0" d="M18.08,2.75l0.36,0.16c0.02,0.01,0.04,0.02,0.06,0.03c0.09,0.07,0.14,0.17,0.15,0.3
					c0.01,0.14-0.04,0.25-0.13,0.34l-0.36-0.16c0.09-0.09,0.13-0.21,0.13-0.34c-0.01-0.13-0.05-0.23-0.15-0.3
					C18.12,2.77,18.1,2.76,18.08,2.75z"/>
			</defs>
			<clipPath id="SVGID_6_">
				<use xlink:href="#SVGID_5_"  style="overflow:visible;"/>
			</clipPath>
			<g class="st10">
				<path class="st9" d="M18.52,3.59l-0.36-0.16c0.01-0.01,0.02-0.02,0.02-0.03l0.36,0.16C18.53,3.57,18.53,3.58,18.52,3.59"/>
				<path class="st11" d="M18.54,3.56L18.18,3.4c0.01-0.01,0.02-0.03,0.03-0.05l0.36,0.16C18.57,3.53,18.55,3.55,18.54,3.56"/>
				<path class="st12" d="M18.58,3.52l-0.36-0.16c0.01-0.02,0.02-0.04,0.03-0.06l0.36,0.16C18.6,3.48,18.59,3.5,18.58,3.52"/>
				<path class="st2" d="M18.61,3.46L18.25,3.3c0.03-0.06,0.04-0.13,0.04-0.21c-0.01-0.13-0.05-0.23-0.15-0.3
					c-0.02-0.01-0.04-0.02-0.06-0.03l0.36,0.16c0.02,0.01,0.04,0.02,0.06,0.03c0.09,0.07,0.14,0.17,0.15,0.3
					C18.65,3.32,18.64,3.39,18.61,3.46"/>
			</g>
		</g>
		<g class="st0">
			<defs>
				<path id="SVGID_7_" class="st0" d="M16.47,5.99l-0.36-0.16c-0.01,0-0.01-0.01-0.02-0.01c-0.03-0.02-0.04-0.05-0.05-0.09
					l0.36,0.16c0,0.04,0.02,0.07,0.05,0.09C16.46,5.98,16.46,5.99,16.47,5.99z"/>
			</defs>
			<clipPath id="SVGID_8_">
				<use xlink:href="#SVGID_7_"  style="overflow:visible;"/>
			</clipPath>
			<g class="st13">
				<path class="st2" d="M16.47,5.99l-0.36-0.16c-0.01,0-0.01-0.01-0.02-0.01c-0.03-0.02-0.04-0.05-0.05-0.09l0.36,0.16
					c0,0.04,0.02,0.07,0.05,0.09C16.46,5.98,16.46,5.99,16.47,5.99"/>
			</g>
		</g>
		<g>
			<polygon class="st14" points="17.4,3.87 17.04,3.71 17.74,3.61 18.1,3.77 			"/>
		</g>
		<g class="st0">
			<defs>
				<path id="SVGID_9_" class="st0" d="M19.4,0.04l0.36,0.16c-0.08-0.04-0.18-0.05-0.28-0.04c-0.03,0-0.06,0.01-0.09,0.02
					l-0.36-0.16C19.06,0.01,19.1,0.01,19.13,0C19.23-0.01,19.32,0.01,19.4,0.04z"/>
			</defs>
			<clipPath id="SVGID_10_">
				<use xlink:href="#SVGID_9_"  style="overflow:visible;"/>
			</clipPath>
			<g class="st15">
				<path class="st16" d="M19.39,0.18l-0.36-0.16C19.06,0.01,19.1,0.01,19.13,0C19.19,0,19.25,0,19.3,0.01l0.36,0.16
					c-0.06-0.01-0.12-0.02-0.18-0.01C19.45,0.17,19.42,0.17,19.39,0.18"/>
				<path class="st17" d="M19.66,0.17L19.3,0.01c0.03,0.01,0.06,0.01,0.08,0.02l0.36,0.16C19.72,0.19,19.69,0.18,19.66,0.17"/>
				<path class="st18" d="M19.74,0.2l-0.36-0.16c0.01,0,0.01,0,0.02,0.01l0.36,0.16C19.76,0.2,19.75,0.2,19.74,0.2"/>
			</g>
		</g>
		<g class="st0">
			<defs>
				<path id="SVGID_11_" class="st0" d="M18.86,2.1l0.36,0.16c-0.27-0.12-0.63-0.16-1.05-0.11c-0.04,0-0.08,0.01-0.12,0.02
					l-0.36-0.16c0.04-0.01,0.08-0.01,0.12-0.02C18.23,1.94,18.59,1.98,18.86,2.1z"/>
			</defs>
			<clipPath id="SVGID_12_">
				<use xlink:href="#SVGID_11_"  style="overflow:visible;"/>
			</clipPath>
			<g class="st19">
				<path class="st5" d="M18.05,2.17l-0.36-0.16c0.04-0.01,0.08-0.01,0.12-0.02c0.29-0.03,0.55-0.03,0.77,0.02l0.36,0.16
					c-0.22-0.05-0.48-0.05-0.77-0.02C18.13,2.16,18.09,2.16,18.05,2.17"/>
				<path class="st6" d="M18.94,2.17l-0.36-0.16c0.08,0.02,0.16,0.04,0.24,0.07l0.36,0.16C19.1,2.21,19.02,2.19,18.94,2.17"/>
				<path class="st7" d="M19.18,2.24l-0.36-0.16c0.01,0.01,0.03,0.01,0.04,0.02l0.36,0.16C19.21,2.26,19.19,2.25,19.18,2.24"/>
			</g>
		</g>
		<g>
			<polygon class="st14" points="16.41,2.41 16.06,2.25 17.69,2.01 18.05,2.17 			"/>
		</g>
		<g>
			<polygon class="st20" points="16.4,5.89 16.04,5.73 15.91,2.4 16.27,2.56 			"/>
		</g>
		<g>
			<path class="st21" d="M19.95,5.39c0,0.03-0.01,0.05-0.04,0.08c-0.03,0.03-0.06,0.04-0.09,0.05l-0.79,0.12c-0.01,0-0.01,0-0.02,0
				c-0.07,0.01-0.12,0-0.15-0.03c-0.04-0.03-0.06-0.05-0.08-0.08L18.05,4.5L17.43,4.6l0.05,1.14c0,0.04-0.01,0.07-0.04,0.1
				c-0.03,0.03-0.06,0.05-0.11,0.05L16.56,6C16.51,6,16.48,6,16.45,5.98c-0.03-0.02-0.04-0.05-0.05-0.09l-0.13-3.33
				c0-0.04,0.01-0.07,0.04-0.1c0.03-0.03,0.06-0.05,0.11-0.05l1.63-0.24c0.04-0.01,0.08-0.01,0.12-0.02
				C18.63,2.1,19,2.14,19.28,2.29c0.31,0.16,0.47,0.43,0.48,0.8c0.01,0.24-0.05,0.46-0.18,0.65c-0.13,0.19-0.31,0.34-0.53,0.46
				l0.88,1.14C19.94,5.36,19.95,5.37,19.95,5.39z M18.52,3.59c0.09-0.09,0.13-0.21,0.13-0.34c-0.01-0.13-0.05-0.23-0.15-0.3
				c-0.09-0.06-0.22-0.09-0.39-0.07c-0.01,0-0.03,0-0.04,0.01l-0.7,0.1l0.04,0.89l0.7-0.1C18.29,3.74,18.43,3.68,18.52,3.59"/>
		</g>
		<g class="st0">
			<defs>
				<path id="SVGID_13_" class="st0" d="M16.27,2.56L15.91,2.4c0-0.04,0.01-0.07,0.04-0.1c0.03-0.03,0.06-0.05,0.11-0.05l0.36,0.16
					c-0.04,0.01-0.08,0.02-0.11,0.05C16.28,2.49,16.27,2.52,16.27,2.56z"/>
			</defs>
			<clipPath id="SVGID_14_">
				<use xlink:href="#SVGID_13_"  style="overflow:visible;"/>
			</clipPath>
			<g class="st22">
				<path class="st2" d="M16.27,2.56L15.91,2.4c0-0.02,0-0.04,0.01-0.06l0.36,0.16C16.27,2.52,16.27,2.54,16.27,2.56"/>
				<path class="st12" d="M16.28,2.5l-0.36-0.16c0-0.01,0.01-0.01,0.01-0.02l0.36,0.16C16.29,2.49,16.28,2.49,16.28,2.5"/>
				<path class="st11" d="M16.29,2.48l-0.36-0.16c0-0.01,0.01-0.01,0.01-0.01l0.36,0.16C16.3,2.47,16.29,2.48,16.29,2.48"/>
				<polyline class="st9" points="16.3,2.47 15.94,2.31 15.95,2.3 15.96,2.29 16.31,2.45 16.31,2.46 16.3,2.47 				"/>
				<path class="st8" d="M16.31,2.45l-0.36-0.16c0,0,0.01-0.01,0.01-0.01l0.36,0.16C16.32,2.44,16.32,2.45,16.31,2.45"/>
				<path class="st7" d="M16.33,2.44l-0.36-0.16c0.01,0,0.01-0.01,0.02-0.01l0.36,0.16C16.34,2.43,16.33,2.44,16.33,2.44"/>
				<path class="st6" d="M16.35,2.43l-0.36-0.16c0.01,0,0.02-0.01,0.02-0.01l0.36,0.16C16.36,2.42,16.35,2.43,16.35,2.43"/>
				<path class="st5" d="M16.37,2.42l-0.36-0.16c0.01-0.01,0.03-0.01,0.05-0.01l0.36,0.16C16.4,2.41,16.38,2.41,16.37,2.42"/>
			</g>
		</g>
		<g>
			<polygon class="st23" points="16.13,1.09 15.77,0.93 19.03,0.02 19.39,0.18 			"/>
		</g>
		<g>
			<polygon class="st23" points="16.09,1.1 15.73,0.94 15.77,0.93 16.13,1.09 			"/>
		</g>
		<g class="st0">
			<defs>
				<path id="SVGID_15_" class="st0" d="M15.73,1.09l-0.36-0.16c0.07,0.03,0.16,0.05,0.25,0.04c0.02,0,0.04-0.01,0.06-0.01
					c0.02,0,0.03-0.01,0.05-0.01l0.36,0.16c-0.02,0.01-0.03,0.01-0.05,0.01c-0.02,0-0.04,0.01-0.06,0.01
					C15.89,1.14,15.81,1.12,15.73,1.09z"/>
			</defs>
			<clipPath id="SVGID_16_">
				<use xlink:href="#SVGID_15_"  style="overflow:visible;"/>
			</clipPath>
			<g class="st24">
				<path class="st18" d="M15.73,1.09l-0.36-0.16c0,0,0.01,0,0.01,0.01l0.36,0.16C15.74,1.09,15.74,1.09,15.73,1.09"/>
				<path class="st17" d="M15.75,1.1l-0.36-0.16c0.02,0.01,0.05,0.02,0.07,0.02l0.36,0.16C15.8,1.11,15.77,1.1,15.75,1.1"/>
				<path class="st16" d="M15.82,1.12l-0.36-0.16c0.05,0.01,0.1,0.01,0.16,0.01c0.02,0,0.04-0.01,0.06-0.01
					c0.02,0,0.03-0.01,0.05-0.01l0.36,0.16c-0.02,0.01-0.03,0.01-0.05,0.01c-0.02,0-0.04,0.01-0.06,0.01
					C15.93,1.13,15.87,1.13,15.82,1.12"/>
			</g>
		</g>
		<g class="st0">
			<defs>
				<path id="SVGID_17_" class="st0" d="M14.16,2.66l0.36,0.16c0.09,0.04,0.14,0.11,0.14,0.21c0,0.13-0.11,0.25-0.26,0.3l-0.36-0.16
					c0.16-0.05,0.26-0.17,0.26-0.3C14.31,2.77,14.25,2.7,14.16,2.66z"/>
			</defs>
			<clipPath id="SVGID_18_">
				<use xlink:href="#SVGID_17_"  style="overflow:visible;"/>
			</clipPath>
			<g class="st25">
				<path class="st16" d="M14.4,3.32l-0.36-0.16c0.01,0,0.02-0.01,0.03-0.01l0.36,0.16C14.42,3.32,14.41,3.32,14.4,3.32"/>
				<path class="st17" d="M14.43,3.31l-0.36-0.16c0.02-0.01,0.04-0.02,0.06-0.03l0.36,0.16C14.47,3.29,14.45,3.3,14.43,3.31"/>
				<path class="st18" d="M14.49,3.28l-0.36-0.16c0.01-0.01,0.03-0.02,0.04-0.03l0.36,0.16C14.52,3.27,14.51,3.28,14.49,3.28"/>
				<path class="st26" d="M14.53,3.26l-0.36-0.16c0.01-0.01,0.02-0.02,0.03-0.03l0.36,0.16C14.56,3.24,14.55,3.25,14.53,3.26"/>
				<path class="st27" d="M14.57,3.23l-0.36-0.16c0.01-0.01,0.02-0.02,0.03-0.03L14.6,3.2C14.59,3.21,14.58,3.22,14.57,3.23"/>
				<path class="st28" d="M14.6,3.2l-0.36-0.16c0.01-0.01,0.02-0.02,0.02-0.03l0.36,0.16C14.61,3.18,14.61,3.19,14.6,3.2"/>
				<path class="st29" d="M14.62,3.17L14.26,3c0.01-0.01,0.02-0.03,0.02-0.04l0.36,0.16C14.64,3.14,14.63,3.15,14.62,3.17"/>
				<path class="st30" d="M14.64,3.13l-0.36-0.16c0.01-0.03,0.02-0.06,0.02-0.1c0-0.09-0.06-0.17-0.14-0.21l0.36,0.16
					c0.09,0.04,0.14,0.11,0.14,0.21C14.66,3.06,14.66,3.09,14.64,3.13"/>
			</g>
		</g>
		<g>
			<polygon class="st23" points="14.07,3.42 13.71,3.26 14.04,3.16 14.4,3.32 			"/>
		</g>
		<g>
			<polygon class="st23" points="13.87,3.48 13.51,3.32 13.71,3.26 14.07,3.42 			"/>
		</g>
		<g class="st0">
			<defs>
				<path id="SVGID_19_" class="st0" d="M14.07,2.5l-0.36-0.16c0.01,0,0.02,0,0.02-0.01l0.36,0.16C14.09,2.5,14.08,2.5,14.07,2.5z"
					/>
			</defs>
			<clipPath id="SVGID_20_">
				<use xlink:href="#SVGID_19_"  style="overflow:visible;"/>
			</clipPath>
			<g class="st31">
				<path class="st16" d="M14.07,2.5l-0.36-0.16c0.01,0,0.02,0,0.02-0.01l0.36,0.16C14.09,2.5,14.08,2.5,14.07,2.5"/>
			</g>
		</g>
		<g class="st0">
			<defs>
				<path id="SVGID_21_" class="st0" d="M14.09,2.49l-0.36-0.16c0.17-0.05,0.3-0.21,0.3-0.37c0-0.05-0.01-0.1-0.04-0.14l0.36,0.16
					c0.02,0.04,0.04,0.09,0.04,0.14C14.39,2.29,14.26,2.44,14.09,2.49z"/>
			</defs>
			<clipPath id="SVGID_22_">
				<use xlink:href="#SVGID_21_"  style="overflow:visible;"/>
			</clipPath>
			<g class="st32">
				<path class="st16" d="M14.09,2.49l-0.36-0.16c0.01,0,0.02-0.01,0.03-0.01l0.36,0.16C14.11,2.49,14.1,2.49,14.09,2.49"/>
				<path class="st17" d="M14.12,2.48l-0.36-0.16c0.02-0.01,0.04-0.02,0.06-0.03l0.36,0.16C14.16,2.47,14.14,2.48,14.12,2.48"/>
				<path class="st18" d="M14.18,2.45l-0.36-0.16c0.02-0.01,0.03-0.02,0.05-0.03l0.36,0.16C14.21,2.44,14.2,2.45,14.18,2.45"/>
				<path class="st26" d="M14.23,2.42l-0.36-0.16c0.01-0.01,0.03-0.02,0.04-0.03l0.36,0.16C14.25,2.4,14.24,2.41,14.23,2.42"/>
				<path class="st27" d="M14.27,2.39l-0.36-0.16c0.01-0.01,0.02-0.02,0.03-0.04l0.36,0.16C14.29,2.37,14.28,2.38,14.27,2.39"/>
				<path class="st28" d="M14.3,2.36l-0.36-0.16c0.01-0.01,0.02-0.03,0.03-0.04l0.36,0.16C14.32,2.33,14.31,2.34,14.3,2.36"/>
				<path class="st29" d="M14.33,2.31l-0.36-0.16C13.99,2.14,13.99,2.12,14,2.1l0.36,0.16C14.35,2.28,14.34,2.3,14.33,2.31"/>
				<path class="st30" d="M14.36,2.26L14,2.1c0.02-0.04,0.03-0.09,0.03-0.14c0-0.05-0.01-0.1-0.04-0.14l0.36,0.16
					c0.02,0.04,0.04,0.09,0.04,0.14C14.39,2.17,14.38,2.22,14.36,2.26"/>
			</g>
		</g>
		<g>
			<polygon class="st23" points="13.96,2.53 13.6,2.37 13.71,2.34 14.07,2.5 			"/>
		</g>
		<g class="st0">
			<defs>
				<path id="SVGID_23_" class="st0" d="M14.36,1.98L14,1.82c-0.01-0.02-0.02-0.03-0.02-0.03c-0.01-0.02-0.03-0.03-0.04-0.05
					l0.36,0.16c0.02,0.01,0.03,0.03,0.04,0.05C14.34,1.95,14.34,1.96,14.36,1.98z"/>
			</defs>
			<clipPath id="SVGID_24_">
				<use xlink:href="#SVGID_23_"  style="overflow:visible;"/>
			</clipPath>
			<g class="st33">
				<path class="st30" d="M14.36,1.98L14,1.82c-0.01-0.02-0.02-0.03-0.02-0.03c-0.01-0.02-0.03-0.03-0.04-0.05l0.36,0.16
					c0.02,0.01,0.03,0.03,0.04,0.05C14.34,1.95,14.34,1.96,14.36,1.98"/>
			</g>
		</g>
		<g>
			<polygon class="st23" points="13.77,2.59 13.41,2.43 13.6,2.37 13.96,2.53 			"/>
		</g>
		<g class="st0">
			<defs>
				<path id="SVGID_25_" class="st0" d="M13.85,1.69l0.36,0.16c0.03,0.01,0.05,0.03,0.08,0.04l-0.36-0.16
					C13.9,1.72,13.88,1.7,13.85,1.69z"/>
			</defs>
			<clipPath id="SVGID_26_">
				<use xlink:href="#SVGID_25_"  style="overflow:visible;"/>
			</clipPath>
			<g class="st34">
				<path class="st30" d="M14.29,1.9l-0.36-0.16c-0.03-0.02-0.05-0.03-0.08-0.04l0.36,0.16C14.23,1.87,14.26,1.88,14.29,1.9"/>
			</g>
		</g>
		<g>
			<polygon class="st23" points="13.63,2.63 13.27,2.47 13.41,2.43 13.77,2.59 			"/>
		</g>
		<g class="st0">
			<defs>
				<path id="SVGID_27_" class="st0" d="M14.12,1.42l-0.36-0.16c0.16-0.05,0.27-0.16,0.29-0.29l0.36,0.16
					C14.38,1.26,14.27,1.37,14.12,1.42z"/>
			</defs>
			<clipPath id="SVGID_28_">
				<use xlink:href="#SVGID_27_"  style="overflow:visible;"/>
			</clipPath>
			<g class="st35">
				<path class="st16" d="M14.12,1.42l-0.36-0.16c0.01,0,0.02-0.01,0.03-0.01l0.36,0.16C14.14,1.41,14.13,1.42,14.12,1.42"/>
				<path class="st17" d="M14.15,1.41l-0.36-0.16c0.02-0.01,0.04-0.02,0.06-0.03l0.36,0.16C14.2,1.39,14.17,1.4,14.15,1.41"/>
				<path class="st18" d="M14.22,1.38l-0.36-0.16c0.02-0.01,0.03-0.02,0.05-0.03l0.36,0.16C14.25,1.36,14.23,1.37,14.22,1.38"/>
				<path class="st26" d="M14.26,1.35L13.9,1.19c0.01-0.01,0.03-0.02,0.04-0.03l0.36,0.16C14.29,1.33,14.27,1.34,14.26,1.35"/>
				<path class="st27" d="M14.3,1.32l-0.36-0.16c0.01-0.01,0.02-0.02,0.03-0.03l0.36,0.16C14.32,1.3,14.31,1.31,14.3,1.32"/>
				<path class="st28" d="M14.33,1.28l-0.36-0.16C13.98,1.11,13.99,1.1,14,1.09l0.36,0.16C14.35,1.26,14.34,1.27,14.33,1.28"/>
				<path class="st29" d="M14.36,1.25L14,1.09c0.01-0.02,0.02-0.03,0.03-0.05l0.36,0.16C14.38,1.22,14.37,1.23,14.36,1.25"/>
				<path class="st30" d="M14.38,1.2l-0.36-0.16c0.01-0.02,0.02-0.05,0.02-0.07l0.36,0.16C14.4,1.15,14.39,1.18,14.38,1.2"/>
			</g>
		</g>
		<g class="st0">
			<defs>
				<path id="SVGID_29_" class="st0" d="M14.83,0.12l0.36,0.16c-0.1-0.05-0.22-0.07-0.35-0.06l-0.36-0.16
					C14.61,0.05,14.73,0.07,14.83,0.12z"/>
			</defs>
			<clipPath id="SVGID_30_">
				<use xlink:href="#SVGID_29_"  style="overflow:visible;"/>
			</clipPath>
			<g class="st36">
				<path class="st16" d="M14.84,0.22l-0.36-0.16c0.08-0.01,0.15,0,0.22,0.01l0.36,0.16C14.99,0.22,14.91,0.22,14.84,0.22"/>
				<path class="st17" d="M15.05,0.24L14.7,0.07c0.04,0.01,0.08,0.02,0.11,0.03l0.36,0.16C15.13,0.26,15.09,0.24,15.05,0.24"/>
				<path class="st18" d="M15.17,0.27l-0.36-0.16c0.01,0,0.01,0.01,0.02,0.01l0.36,0.16C15.18,0.28,15.17,0.27,15.17,0.27"/>
			</g>
		</g>
		<g class="st0">
			<defs>
				<path id="SVGID_31_" class="st0" d="M14.78,0.22l-0.36-0.16c0.02,0,0.04,0,0.05,0l0.36,0.16C14.82,0.22,14.8,0.22,14.78,0.22z"
					/>
			</defs>
			<clipPath id="SVGID_32_">
				<use xlink:href="#SVGID_31_"  style="overflow:visible;"/>
			</clipPath>
			<g class="st37">
				<path class="st16" d="M14.78,0.22l-0.36-0.16c0.02,0,0.04,0,0.05,0l0.36,0.16C14.82,0.22,14.8,0.22,14.78,0.22"/>
			</g>
		</g>
		<g>
			<polygon class="st23" points="13.96,1.47 13.6,1.31 13.76,1.26 14.12,1.42 			"/>
		</g>
		<g class="st0">
			<defs>
				<path id="SVGID_33_" class="st0" d="M14.74,0.23l-0.36-0.16c0.01,0,0.03-0.01,0.04-0.01l0.36,0.16
					C14.77,0.22,14.76,0.23,14.74,0.23z"/>
			</defs>
			<clipPath id="SVGID_34_">
				<use xlink:href="#SVGID_33_"  style="overflow:visible;"/>
			</clipPath>
			<g class="st38">
				<path class="st16" d="M14.74,0.23l-0.36-0.16c0.01,0,0.03-0.01,0.04-0.01l0.36,0.16C14.77,0.22,14.76,0.23,14.74,0.23"/>
			</g>
		</g>
		<g class="st0">
			<defs>
				<path id="SVGID_35_" class="st0" d="M13.89,0.68l0.36,0.16c0.07,0.03,0.12,0.08,0.15,0.15c0.01,0.03,0.02,0.06,0.02,0.09
					c0,0.02,0,0.03,0,0.05l-0.36-0.16c0-0.02,0-0.03,0-0.05c0-0.03-0.01-0.07-0.02-0.09C14.01,0.76,13.96,0.71,13.89,0.68z"/>
			</defs>
			<clipPath id="SVGID_36_">
				<use xlink:href="#SVGID_35_"  style="overflow:visible;"/>
			</clipPath>
			<g class="st39">
				<path class="st30" d="M14.4,1.13l-0.36-0.16c0-0.02,0-0.03,0-0.05c0-0.03-0.01-0.07-0.02-0.09c-0.03-0.07-0.08-0.12-0.15-0.15
					l0.36,0.16c0.07,0.03,0.12,0.08,0.15,0.15c0.01,0.03,0.02,0.06,0.02,0.09C14.41,1.1,14.41,1.11,14.4,1.13"/>
			</g>
		</g>
		<g>
			<polygon class="st23" points="13.71,1.54 13.35,1.38 13.6,1.31 13.96,1.47 			"/>
		</g>
		<g>
			<polygon class="st23" points="13.64,1.56 13.28,1.4 13.35,1.38 13.71,1.54 			"/>
		</g>
		<g>
			<polygon class="st23" points="11.87,4.07 11.51,3.91 13.51,3.32 13.87,3.48 			"/>
		</g>
		<g class="st0">
			<defs>
				<path id="SVGID_37_" class="st0" d="M11.8,4.41l-0.36-0.16c-0.04-0.02-0.08-0.06-0.09-0.11c0-0.01,0-0.02,0-0.04
					c0-0.08,0.07-0.17,0.16-0.2l0.36,0.16c-0.1,0.03-0.16,0.11-0.16,0.2c0,0.01,0,0.02,0,0.04C11.72,4.35,11.76,4.39,11.8,4.41z"/>
			</defs>
			<clipPath id="SVGID_38_">
				<use xlink:href="#SVGID_37_"  style="overflow:visible;"/>
			</clipPath>
			<g class="st40">
				<path class="st30" d="M11.8,4.41l-0.36-0.16c-0.04-0.02-0.08-0.06-0.09-0.11c0-0.01,0-0.02,0-0.04c0-0.02,0.01-0.05,0.02-0.07
					l0.36,0.16c-0.01,0.02-0.02,0.05-0.02,0.07c0,0.01,0,0.02,0,0.04C11.72,4.35,11.76,4.39,11.8,4.41"/>
				<path class="st29" d="M11.72,4.2l-0.36-0.16c0-0.01,0.01-0.02,0.02-0.03l0.36,0.16C11.73,4.18,11.73,4.19,11.72,4.2"/>
				<path class="st28" d="M11.74,4.17l-0.36-0.16c0-0.01,0.01-0.02,0.02-0.02l0.36,0.16C11.75,4.15,11.74,4.16,11.74,4.17"/>
				<path class="st27" d="M11.75,4.15L11.4,3.98c0.01-0.01,0.01-0.01,0.02-0.02l0.36,0.16C11.77,4.13,11.76,4.14,11.75,4.15"/>
				<path class="st26" d="M11.77,4.13l-0.36-0.16c0.01-0.01,0.01-0.01,0.02-0.02l0.36,0.16C11.79,4.11,11.78,4.12,11.77,4.13"/>
				<path class="st18" d="M11.79,4.11l-0.36-0.16c0.01-0.01,0.02-0.01,0.02-0.02l0.36,0.16C11.81,4.1,11.8,4.1,11.79,4.11"/>
				<path class="st17" d="M11.82,4.09l-0.36-0.16c0.01-0.01,0.02-0.01,0.03-0.02l0.36,0.16C11.84,4.08,11.83,4.09,11.82,4.09"/>
				<path class="st16" d="M11.85,4.08l-0.36-0.16c0.01,0,0.01,0,0.02-0.01l0.36,0.16C11.86,4.07,11.86,4.08,11.85,4.08"/>
			</g>
		</g>
		<g>
			<polygon class="st41" points="11.75,3.64 11.4,3.48 11.55,3.43 11.91,3.6 			"/>
		</g>
		<g class="st0">
			<defs>
				<path id="SVGID_39_" class="st0" d="M11.53,3.63l-0.36-0.16c0.05,0.02,0.1,0.03,0.16,0.02c0.02,0,0.04-0.01,0.06-0.01l0.36,0.16
					c-0.02,0.01-0.04,0.01-0.06,0.01C11.63,3.66,11.58,3.65,11.53,3.63z"/>
			</defs>
			<clipPath id="SVGID_40_">
				<use xlink:href="#SVGID_39_"  style="overflow:visible;"/>
			</clipPath>
			<g class="st42">
				<polyline class="st7" points="11.53,3.63 11.17,3.47 11.18,3.48 11.54,3.64 11.53,3.63 				"/>
				<path class="st6" d="M11.54,3.64l-0.36-0.16c0.02,0.01,0.03,0.01,0.05,0.01l0.36,0.16C11.57,3.65,11.56,3.64,11.54,3.64"/>
				<path class="st5" d="M11.59,3.65l-0.36-0.16c0.03,0.01,0.07,0.01,0.1,0c0.02,0,0.04-0.01,0.06-0.01l0.36,0.16
					c-0.02,0.01-0.04,0.01-0.06,0.01C11.66,3.66,11.62,3.66,11.59,3.65"/>
			</g>
		</g>
		<g>
			<polygon class="st23" points="11.71,3.2 11.35,3.04 13.27,2.47 13.63,2.63 			"/>
		</g>
		<g class="st0">
			<defs>
				<path id="SVGID_41_" class="st0" d="M11.64,3.54l-0.36-0.16c-0.04-0.02-0.08-0.06-0.09-0.11c0-0.01,0-0.02,0-0.04
					c0-0.08,0.07-0.17,0.16-0.2l0.36,0.16c-0.1,0.03-0.16,0.11-0.16,0.2c0,0.01,0,0.02,0,0.04C11.56,3.48,11.59,3.51,11.64,3.54z"/>
			</defs>
			<clipPath id="SVGID_42_">
				<use xlink:href="#SVGID_41_"  style="overflow:visible;"/>
			</clipPath>
			<g class="st43">
				<path class="st30" d="M11.64,3.54l-0.36-0.16c-0.04-0.02-0.08-0.06-0.09-0.11c0-0.01,0-0.02,0-0.04c0-0.02,0.01-0.05,0.02-0.07
					l0.36,0.16c-0.01,0.02-0.02,0.05-0.02,0.07c0,0.01,0,0.02,0,0.04C11.56,3.48,11.59,3.51,11.64,3.54"/>
				<path class="st29" d="M11.56,3.32L11.2,3.16c0-0.01,0.01-0.02,0.02-0.03l0.36,0.16C11.57,3.3,11.57,3.31,11.56,3.32"/>
				<path class="st28" d="M11.58,3.29l-0.36-0.16c0-0.01,0.01-0.02,0.02-0.02l0.36,0.16C11.59,3.28,11.58,3.29,11.58,3.29"/>
				<path class="st27" d="M11.59,3.27l-0.36-0.16c0.01-0.01,0.01-0.01,0.02-0.02l0.36,0.16C11.6,3.26,11.6,3.27,11.59,3.27"/>
				<path class="st26" d="M11.61,3.25l-0.36-0.16c0.01-0.01,0.01-0.01,0.02-0.02l0.36,0.16C11.62,3.24,11.62,3.25,11.61,3.25"/>
				<path class="st18" d="M11.63,3.24l-0.36-0.16c0.01-0.01,0.02-0.01,0.02-0.02l0.36,0.16C11.65,3.22,11.64,3.23,11.63,3.24"/>
				<path class="st17" d="M11.66,3.22L11.3,3.06c0.01-0.01,0.02-0.01,0.03-0.02l0.36,0.16C11.68,3.21,11.67,3.21,11.66,3.22"/>
				<path class="st16" d="M11.69,3.2l-0.36-0.16c0.01,0,0.01,0,0.02-0.01l0.36,0.16C11.7,3.2,11.69,3.2,11.69,3.2"/>
			</g>
		</g>
		<g>
			<polygon class="st41" points="11.52,2.67 11.16,2.51 11.68,2.35 12.04,2.51 			"/>
		</g>
		<g class="st0">
			<defs>
				<path id="SVGID_43_" class="st0" d="M11.3,2.66L10.94,2.5c0.05,0.02,0.1,0.03,0.16,0.02c0.02,0,0.04-0.01,0.06-0.01l0.36,0.16
					c-0.02,0.01-0.04,0.01-0.06,0.01C11.4,2.69,11.34,2.68,11.3,2.66z"/>
			</defs>
			<clipPath id="SVGID_44_">
				<use xlink:href="#SVGID_43_"  style="overflow:visible;"/>
			</clipPath>
			<g class="st44">
				<polyline class="st7" points="11.3,2.66 10.94,2.5 10.95,2.5 11.31,2.66 11.3,2.66 				"/>
				<path class="st6" d="M11.31,2.66L10.95,2.5c0.02,0.01,0.03,0.01,0.05,0.01l0.36,0.16C11.34,2.67,11.32,2.67,11.31,2.66"/>
				<path class="st5" d="M11.35,2.68L11,2.52c0.03,0.01,0.07,0.01,0.1,0c0.02,0,0.04-0.01,0.06-0.01l0.36,0.16
					c-0.02,0.01-0.04,0.01-0.06,0.01C11.42,2.69,11.39,2.68,11.35,2.68"/>
			</g>
		</g>
		<g>
			<polygon class="st23" points="11.48,2.2 11.12,2.04 13.28,1.4 13.64,1.56 			"/>
		</g>
		<g class="st0">
			<defs>
				<path id="SVGID_45_" class="st0" d="M11.41,2.54l-0.36-0.16c-0.04-0.02-0.08-0.06-0.09-0.11l0.36,0.16
					C11.33,2.48,11.37,2.52,11.41,2.54z"/>
			</defs>
			<clipPath id="SVGID_46_">
				<use xlink:href="#SVGID_45_"  style="overflow:visible;"/>
			</clipPath>
			<g class="st45">
				<path class="st30" d="M11.41,2.54l-0.36-0.16c-0.04-0.02-0.08-0.06-0.09-0.11l0.36,0.16C11.33,2.48,11.37,2.52,11.41,2.54"/>
			</g>
		</g>
		<g class="st0">
			<defs>
				<path id="SVGID_47_" class="st0" d="M10.97,3.1l-0.36-0.16c0.01-0.1,0.01-0.19,0.02-0.27l0.36,0.16
					C10.98,2.91,10.97,3,10.97,3.1z"/>
			</defs>
			<clipPath id="SVGID_48_">
				<use xlink:href="#SVGID_47_"  style="overflow:visible;"/>
			</clipPath>
			<g class="st46">
				<path class="st2" d="M10.97,3.1l-0.36-0.16c0.01-0.1,0.01-0.19,0.02-0.27l0.36,0.16C10.98,2.91,10.97,3,10.97,3.1"/>
			</g>
		</g>
		<g class="st0">
			<defs>
				<path id="SVGID_49_" class="st0" d="M11.32,2.43l-0.36-0.16c0-0.01,0-0.02,0-0.04c0-0.08,0.07-0.17,0.16-0.2l0.36,0.16
					c-0.1,0.03-0.16,0.11-0.16,0.2C11.32,2.41,11.32,2.42,11.32,2.43z"/>
			</defs>
			<clipPath id="SVGID_50_">
				<use xlink:href="#SVGID_49_"  style="overflow:visible;"/>
			</clipPath>
			<g class="st47">
				<path class="st30" d="M11.32,2.43l-0.36-0.16c0-0.01,0-0.02,0-0.04c0-0.02,0.01-0.05,0.02-0.07l0.36,0.16
					c-0.01,0.02-0.02,0.05-0.02,0.07C11.32,2.41,11.32,2.42,11.32,2.43"/>
				<path class="st29" d="M11.33,2.32l-0.36-0.16c0-0.01,0.01-0.02,0.02-0.03l0.36,0.16C11.34,2.3,11.34,2.31,11.33,2.32"/>
				<path class="st28" d="M11.35,2.3l-0.36-0.16c0-0.01,0.01-0.02,0.02-0.02l0.36,0.16C11.36,2.28,11.35,2.29,11.35,2.3"/>
				<path class="st27" d="M11.36,2.27l-0.36-0.16c0.01-0.01,0.01-0.01,0.02-0.02l0.36,0.16C11.38,2.26,11.37,2.27,11.36,2.27"/>
				<path class="st26" d="M11.38,2.25l-0.36-0.16c0.01-0.01,0.01-0.01,0.02-0.02l0.36,0.16C11.4,2.24,11.39,2.25,11.38,2.25"/>
				<path class="st18" d="M11.4,2.24l-0.36-0.16c0.01-0.01,0.02-0.01,0.02-0.02l0.36,0.16C11.42,2.23,11.41,2.23,11.4,2.24"/>
				<path class="st17" d="M11.43,2.22l-0.36-0.16c0.01-0.01,0.02-0.01,0.03-0.02l0.36,0.16C11.45,2.21,11.44,2.22,11.43,2.22"/>
				<path class="st16" d="M11.46,2.21L11.1,2.04c0.01,0,0.01,0,0.02-0.01l0.36,0.16C11.47,2.2,11.47,2.2,11.46,2.21"/>
			</g>
		</g>
		<g class="st0">
			<defs>
				<path id="SVGID_51_" class="st0" d="M10.21,3.88L9.85,3.72c0.17-0.02,0.31-0.06,0.42-0.12c0.11-0.06,0.19-0.14,0.25-0.25
					c0.06-0.11,0.09-0.24,0.09-0.41l0.36,0.16c0,0.16-0.03,0.3-0.09,0.41c-0.06,0.11-0.14,0.19-0.25,0.25
					C10.51,3.82,10.37,3.86,10.21,3.88z"/>
			</defs>
			<clipPath id="SVGID_52_">
				<use xlink:href="#SVGID_51_"  style="overflow:visible;"/>
			</clipPath>
			<g class="st48">
				<path class="st5" d="M10.21,3.88L9.85,3.72c0.12-0.01,0.23-0.04,0.32-0.07l0.36,0.16C10.44,3.84,10.33,3.86,10.21,3.88"/>
				<path class="st6" d="M10.53,3.8l-0.36-0.16c0.03-0.01,0.07-0.03,0.1-0.04c0.01,0,0.01-0.01,0.02-0.01l0.36,0.16
					c-0.01,0-0.01,0.01-0.02,0.01C10.59,3.78,10.56,3.79,10.53,3.8"/>
				<path class="st7" d="M10.64,3.75l-0.36-0.16c0.02-0.01,0.05-0.03,0.07-0.04l0.36,0.16C10.69,3.72,10.66,3.74,10.64,3.75"/>
				<path class="st8" d="M10.71,3.71l-0.36-0.16c0.02-0.01,0.04-0.03,0.05-0.04l0.36,0.16C10.74,3.68,10.72,3.69,10.71,3.71"/>
				<path class="st9" d="M10.76,3.66L10.4,3.5c0.02-0.02,0.03-0.03,0.05-0.05l0.36,0.16C10.79,3.63,10.77,3.65,10.76,3.66"/>
				<path class="st11" d="M10.8,3.62l-0.36-0.16c0.02-0.02,0.03-0.04,0.04-0.06l0.36,0.16C10.83,3.58,10.82,3.6,10.8,3.62"/>
				<path class="st12" d="M10.85,3.56L10.49,3.4c0.01-0.02,0.02-0.03,0.03-0.05c0.01-0.01,0.01-0.02,0.02-0.04l0.36,0.16
					c-0.01,0.01-0.01,0.03-0.02,0.04C10.87,3.53,10.86,3.54,10.85,3.56"/>
				<path class="st2" d="M10.89,3.47l-0.36-0.16c0.04-0.1,0.07-0.22,0.07-0.37l0.36,0.16C10.96,3.25,10.94,3.37,10.89,3.47"/>
			</g>
		</g>
		<g class="st0">
			<defs>
				<path id="SVGID_53_" class="st0" d="M10.98,2.83l-0.36-0.16c0-0.08,0-0.16,0-0.24c0-0.08-0.01-0.17-0.01-0.26l0.36,0.16
					c0.01,0.1,0.01,0.18,0.01,0.26C10.98,2.67,10.98,2.75,10.98,2.83z"/>
			</defs>
			<clipPath id="SVGID_54_">
				<use xlink:href="#SVGID_53_"  style="overflow:visible;"/>
			</clipPath>
			<g class="st49">
				<path class="st2" d="M10.98,2.83l-0.36-0.16c0-0.08,0-0.16,0-0.24c0-0.08-0.01-0.17-0.01-0.26l0.36,0.16
					c0.01,0.1,0.01,0.18,0.01,0.26C10.98,2.67,10.98,2.75,10.98,2.83"/>
			</g>
		</g>
		<g>
			<polygon class="st41" points="11.38,1.69 11.02,1.53 11.51,1.38 11.87,1.54 			"/>
		</g>
		<g class="st0">
			<defs>
				<path id="SVGID_55_" class="st0" d="M11.15,1.68l-0.36-0.16c0.05,0.02,0.1,0.03,0.16,0.02c0.02,0,0.04-0.01,0.06-0.01l0.36,0.16
					C11.35,1.7,11.33,1.7,11.31,1.7C11.26,1.71,11.2,1.7,11.15,1.68z"/>
			</defs>
			<clipPath id="SVGID_56_">
				<use xlink:href="#SVGID_55_"  style="overflow:visible;"/>
			</clipPath>
			<g class="st50">
				<polyline class="st7" points="11.15,1.68 10.79,1.52 10.8,1.52 11.16,1.68 11.15,1.68 				"/>
				<path class="st6" d="M11.16,1.68L10.8,1.52c0.02,0.01,0.03,0.01,0.05,0.01l0.36,0.16C11.19,1.7,11.18,1.69,11.16,1.68"/>
				<path class="st5" d="M11.21,1.7l-0.36-0.16c0.03,0.01,0.07,0.01,0.1,0c0.02,0,0.04-0.01,0.06-0.01l0.36,0.16
					C11.35,1.7,11.33,1.7,11.31,1.7C11.28,1.71,11.24,1.71,11.21,1.7"/>
			</g>
		</g>
		<g>
			<polygon class="st14" points="9.59,3.95 9.23,3.79 9.85,3.72 10.21,3.88 			"/>
		</g>
		<g>
			<polygon class="st23" points="11.34,1.24 10.98,1.07 14.39,0.07 14.74,0.23 			"/>
		</g>
		<g class="st0">
			<defs>
				<path id="SVGID_57_" class="st0" d="M11.27,1.57l-0.36-0.16c-0.04-0.02-0.08-0.06-0.09-0.11l0.36,0.16
					C11.19,1.52,11.23,1.55,11.27,1.57z"/>
			</defs>
			<clipPath id="SVGID_58_">
				<use xlink:href="#SVGID_57_"  style="overflow:visible;"/>
			</clipPath>
			<g class="st51">
				<path class="st30" d="M11.27,1.57l-0.36-0.16c-0.04-0.02-0.08-0.06-0.09-0.11l0.36,0.16C11.19,1.52,11.23,1.55,11.27,1.57"/>
			</g>
		</g>
		<g>
			<path class="st52" d="M14.78,0.22c0.02,0,0.04,0,0.05,0c0.38-0.03,0.68,0.21,0.68,0.56c0.01,0.22,0.21,0.37,0.46,0.34
				c0.02,0,0.04-0.01,0.06-0.01c0.02,0,0.03-0.01,0.05-0.01l0.04-0.01l3.26-0.91c0.03-0.01,0.06-0.01,0.09-0.02
				c0.25-0.03,0.46,0.1,0.51,0.32C20,0.51,20,0.54,20,0.57c0,0.22-0.18,0.43-0.43,0.5l-3.36,0.94l-0.03,0.01l-0.05,0.02
				c-0.18,0.08-0.32,0.25-0.32,0.43c0,0.03,0,0.07,0.01,0.1c0,0.01,0.01,0.02,0.01,0.02c0,0.01,0.01,0.02,0.01,0.03
				c0.01,0.04,0.01,0.08,0.01,0.12c0,0.21-0.12,0.41-0.29,0.55c-0.08,0.06-0.16,0.11-0.26,0.14l-0.05,0.01l-3.31,0.98
				c-0.01,0-0.03,0.01-0.04,0.01c-0.09,0.01-0.18-0.04-0.2-0.12c0-0.01,0-0.02,0-0.04c0-0.08,0.07-0.17,0.16-0.2l2-0.59l0.2-0.06
				l0.33-0.1c0.16-0.05,0.26-0.17,0.26-0.3c0-0.15-0.15-0.25-0.33-0.23c-0.01,0-0.02,0-0.03,0.01c-0.03,0.01-0.05,0.01-0.06,0.02
				l-0.25,0.08L13.63,3l-1.85,0.55c-0.01,0-0.03,0.01-0.04,0.01c-0.09,0.01-0.18-0.04-0.2-0.12c0-0.01,0-0.02,0-0.04
				c0-0.08,0.07-0.17,0.16-0.2l1.93-0.57l0.13-0.04l0.19-0.06l0.11-0.03c0.01,0,0.02,0,0.02-0.01c0.17-0.05,0.3-0.21,0.3-0.37
				c0-0.05-0.01-0.1-0.04-0.14c-0.01-0.02-0.02-0.03-0.02-0.03c-0.01-0.02-0.03-0.03-0.04-0.05c-0.1-0.07-0.18-0.09-0.27-0.07
				c-0.02,0-0.04,0.01-0.05,0.01l-0.04,0.01L13.7,1.91l-0.06,0.02l-2.08,0.61c-0.01,0-0.03,0.01-0.04,0.01
				c-0.09,0.01-0.18-0.04-0.2-0.12c0-0.01,0-0.02,0-0.04c0-0.08,0.07-0.17,0.16-0.2l2.16-0.64l0.07-0.02l0.25-0.07l0.16-0.05
				c0.16-0.05,0.27-0.16,0.29-0.29c0-0.02,0-0.03,0-0.05c0-0.03-0.01-0.07-0.02-0.09c-0.05-0.12-0.18-0.19-0.34-0.18
				c-0.02,0-0.05,0.01-0.07,0.01l-0.34,0.1l-0.09,0.03l-2.12,0.63c-0.01,0-0.03,0.01-0.04,0.01c-0.09,0.01-0.18-0.04-0.2-0.12
				c0-0.01,0-0.02,0-0.04c0-0.08,0.07-0.17,0.16-0.2l3.4-1.01C14.76,0.23,14.77,0.22,14.78,0.22z"/>
		</g>
		<g class="st0">
			<defs>
				<path id="SVGID_59_" class="st0" d="M11.18,1.47l-0.36-0.16c0-0.01,0-0.02,0-0.04c0-0.08,0.07-0.17,0.16-0.2l0.36,0.16
					c-0.1,0.03-0.16,0.11-0.16,0.2C11.18,1.44,11.18,1.46,11.18,1.47z"/>
			</defs>
			<clipPath id="SVGID_60_">
				<use xlink:href="#SVGID_59_"  style="overflow:visible;"/>
			</clipPath>
			<g class="st53">
				<path class="st30" d="M11.18,1.47l-0.36-0.16c0-0.01,0-0.02,0-0.04c0-0.02,0.01-0.05,0.02-0.07l0.36,0.16
					c-0.01,0.02-0.02,0.05-0.02,0.07C11.18,1.44,11.18,1.46,11.18,1.47"/>
				<path class="st29" d="M11.19,1.36L10.84,1.2c0-0.01,0.01-0.02,0.02-0.03l0.36,0.16C11.2,1.34,11.2,1.35,11.19,1.36"/>
				<path class="st28" d="M11.21,1.33l-0.36-0.16c0.01-0.01,0.01-0.02,0.02-0.02l0.36,0.16C11.22,1.32,11.21,1.32,11.21,1.33"/>
				<path class="st27" d="M11.23,1.31l-0.36-0.16c0.01-0.01,0.01-0.01,0.02-0.02l0.36,0.16C11.24,1.3,11.23,1.3,11.23,1.31"/>
				<path class="st26" d="M11.24,1.29l-0.36-0.16c0.01-0.01,0.01-0.01,0.02-0.02l0.36,0.16C11.26,1.28,11.25,1.28,11.24,1.29"/>
				<path class="st18" d="M11.27,1.27l-0.36-0.16c0.01-0.01,0.02-0.01,0.02-0.02l0.36,0.16C11.28,1.26,11.27,1.27,11.27,1.27"/>
				<path class="st17" d="M11.29,1.26L10.93,1.1c0.01-0.01,0.02-0.01,0.03-0.02l0.36,0.16C11.31,1.25,11.3,1.25,11.29,1.26"/>
				<path class="st16" d="M11.32,1.24l-0.36-0.16c0.01,0,0.01,0,0.02-0.01l0.36,0.16C11.34,1.24,11.33,1.24,11.32,1.24"/>
			</g>
		</g>
		<g class="st0">
			<defs>
				<path id="SVGID_61_" class="st0" d="M10.32,1.63l0.36,0.16c0.03,0.01,0.06,0.03,0.08,0.05c0.13,0.09,0.2,0.26,0.21,0.49
					l-0.36-0.16c-0.01-0.23-0.08-0.4-0.21-0.49C10.38,1.66,10.35,1.64,10.32,1.63z"/>
			</defs>
			<clipPath id="SVGID_62_">
				<use xlink:href="#SVGID_61_"  style="overflow:visible;"/>
			</clipPath>
			<g class="st54">
				<path class="st2" d="M10.97,2.33l-0.36-0.16c-0.01-0.23-0.08-0.4-0.21-0.49c-0.03-0.02-0.05-0.03-0.08-0.05l0.36,0.16
					c0.03,0.01,0.06,0.03,0.08,0.05C10.89,1.93,10.96,2.09,10.97,2.33"/>
			</g>
		</g>
		<g class="st0">
			<defs>
				<path id="SVGID_63_" class="st0" d="M8.61,4.79L8.25,4.63c-0.01,0-0.02-0.01-0.02-0.01l0.36,0.16C8.59,4.78,8.6,4.79,8.61,4.79z
					"/>
			</defs>
			<clipPath id="SVGID_64_">
				<use xlink:href="#SVGID_63_"  style="overflow:visible;"/>
			</clipPath>
			<g class="st55">
				<path class="st2" d="M8.61,4.79L8.25,4.63c-0.01,0-0.02-0.01-0.02-0.01l0.36,0.16C8.59,4.78,8.6,4.79,8.61,4.79"/>
			</g>
		</g>
		<g class="st0">
			<defs>
				<path id="SVGID_65_" class="st0" d="M8.59,4.78L8.23,4.62C8.2,4.6,8.19,4.57,8.19,4.53l0.36,0.16C8.54,4.73,8.56,4.76,8.59,4.78
					z"/>
			</defs>
			<clipPath id="SVGID_66_">
				<use xlink:href="#SVGID_65_"  style="overflow:visible;"/>
			</clipPath>
			<g class="st56">
				<path class="st2" d="M8.59,4.78L8.23,4.62C8.2,4.6,8.19,4.57,8.19,4.53l0.36,0.16C8.54,4.73,8.56,4.76,8.59,4.78"/>
			</g>
		</g>
		<g class="st0">
			<defs>
				<path id="SVGID_67_" class="st0" d="M11.01,0.95l0.36,0.16c-0.06-0.03-0.12-0.05-0.19-0.07c-0.27-0.08-0.59-0.09-0.97-0.05
					L9.86,0.83c0.38-0.04,0.71-0.03,0.97,0.05C10.89,0.9,10.96,0.92,11.01,0.95z"/>
			</defs>
			<clipPath id="SVGID_68_">
				<use xlink:href="#SVGID_67_"  style="overflow:visible;"/>
			</clipPath>
			<g class="st57">
				<path class="st5" d="M10.21,0.99L9.86,0.83c0.33-0.04,0.61-0.03,0.86,0.02l0.36,0.16C10.83,0.96,10.54,0.95,10.21,0.99"/>
				<path class="st6" d="M11.07,1.01l-0.36-0.16c0.04,0.01,0.08,0.02,0.12,0.03c0.05,0.01,0.1,0.03,0.14,0.05l0.36,0.16
					c-0.05-0.02-0.09-0.03-0.14-0.05C11.15,1.03,11.11,1.02,11.07,1.01"/>
				<path class="st7" d="M11.33,1.09l-0.36-0.16c0.01,0.01,0.03,0.01,0.04,0.02l0.36,0.16C11.36,1.1,11.34,1.09,11.33,1.09"/>
			</g>
		</g>
		<g>
			<polygon class="st14" points="8.7,1.16 8.34,1 9.86,0.83 10.21,0.99 			"/>
		</g>
		<g>
			<polygon class="st58" points="8.55,4.69 8.19,4.53 8.19,1.15 8.55,1.31 			"/>
		</g>
		<g class="st0">
			<defs>
				<path id="SVGID_69_" class="st0" d="M8.55,1.31L8.19,1.15c0-0.04,0.01-0.07,0.04-0.1C8.26,1.02,8.3,1.01,8.34,1L8.7,1.16
					c-0.04,0-0.08,0.02-0.1,0.05C8.57,1.24,8.55,1.27,8.55,1.31z"/>
			</defs>
			<clipPath id="SVGID_70_">
				<use xlink:href="#SVGID_69_"  style="overflow:visible;"/>
			</clipPath>
			<g class="st59">
				<path class="st2" d="M8.55,1.31L8.19,1.15c0-0.02,0-0.04,0.01-0.06l0.36,0.16C8.56,1.27,8.55,1.29,8.55,1.31"/>
				<path class="st12" d="M8.56,1.25L8.21,1.09c0-0.01,0.01-0.01,0.01-0.02l0.36,0.16C8.57,1.24,8.57,1.25,8.56,1.25"/>
				<path class="st11" d="M8.57,1.24L8.22,1.08c0,0,0.01-0.01,0.01-0.01l0.36,0.16C8.58,1.23,8.58,1.23,8.57,1.24"/>
				<polyline class="st9" points="8.58,1.22 8.23,1.06 8.24,1.05 8.24,1.05 8.6,1.21 8.59,1.21 8.58,1.22 				"/>
				<path class="st8" d="M8.6,1.21L8.24,1.05c0,0,0.01-0.01,0.01-0.01L8.61,1.2C8.61,1.2,8.6,1.2,8.6,1.21"/>
				<path class="st7" d="M8.61,1.2L8.25,1.03c0.01,0,0.01-0.01,0.02-0.01l0.36,0.16C8.62,1.19,8.62,1.19,8.61,1.2"/>
				<path class="st6" d="M8.63,1.19L8.27,1.02c0.01,0,0.01-0.01,0.02-0.01l0.36,0.16C8.64,1.18,8.64,1.18,8.63,1.19"/>
				<path class="st5" d="M8.65,1.18L8.29,1.01C8.31,1.01,8.32,1,8.34,1L8.7,1.16C8.68,1.17,8.67,1.17,8.65,1.18"/>
			</g>
		</g>
		<g>
			<path class="st21" d="M12.04,2.51c0,0.03,0,0.06,0,0.08c0,0.11,0,0.25-0.01,0.4c0,0.01,0,0.01,0,0.02l-0.4,0.12
				c-0.14,0.04-0.24,0.17-0.24,0.29c0,0.02,0,0.04,0.01,0.06c0.03,0.12,0.15,0.2,0.29,0.18c0.02,0,0.04-0.01,0.06-0.01l0.16-0.05
				c-0.03,0.08-0.07,0.15-0.11,0.22c-0.14,0.23-0.34,0.41-0.6,0.54c-0.26,0.13-0.58,0.22-0.96,0.27L8.69,4.8
				c-0.04,0-0.08,0-0.1-0.02C8.56,4.76,8.54,4.73,8.55,4.69l0.01-3.38c0-0.04,0.01-0.07,0.04-0.1c0.03-0.03,0.06-0.04,0.1-0.05
				l1.52-0.18c0.38-0.04,0.71-0.03,0.97,0.05c0.08,0.02,0.16,0.05,0.23,0.09l-0.16,0.05c-0.14,0.04-0.24,0.17-0.24,0.29
				c0,0.02,0,0.04,0.01,0.06c0.03,0.12,0.15,0.2,0.29,0.18c0.02,0,0.04-0.01,0.06-0.01l0.49-0.15c0.07,0.12,0.12,0.27,0.15,0.43
				L11.4,2.16c-0.14,0.04-0.24,0.17-0.24,0.29c0,0.02,0,0.04,0.01,0.06c0.03,0.12,0.15,0.2,0.29,0.18c0.02,0,0.04-0.01,0.06-0.01
				L12.04,2.51z M10.98,2.83c0-0.08,0-0.16,0-0.24c0-0.08-0.01-0.17-0.01-0.26c-0.01-0.23-0.08-0.4-0.21-0.49
				c-0.13-0.09-0.32-0.13-0.58-0.1L9.59,1.81l0,2.14l0.62-0.07c0.17-0.02,0.31-0.06,0.42-0.12c0.11-0.06,0.19-0.14,0.25-0.25
				c0.06-0.11,0.09-0.24,0.09-0.41C10.97,3,10.98,2.91,10.98,2.83"/>
		</g>
	</g>
	<g class="st0">
		<g class="st0">
			<defs>
				<path id="SVGID_71_" class="st0" d="M7.14,4.98L6.78,4.81c-0.01,0-0.02-0.01-0.02-0.01C6.72,4.77,6.69,4.75,6.67,4.72l0.36,0.16
					c0.02,0.02,0.04,0.05,0.08,0.08C7.12,4.97,7.13,4.97,7.14,4.98z"/>
			</defs>
			<clipPath id="SVGID_72_">
				<use xlink:href="#SVGID_71_"  style="overflow:visible;"/>
			</clipPath>
			<g class="st60">
				<path class="st2" d="M7.14,4.98L6.78,4.81c-0.01,0-0.02-0.01-0.02-0.01C6.72,4.77,6.69,4.75,6.67,4.72l0.36,0.16
					c0.02,0.02,0.04,0.05,0.08,0.08C7.12,4.97,7.13,4.97,7.14,4.98"/>
			</g>
		</g>
		<g>
			<polygon class="st3" points="7.03,4.88 6.67,4.72 5.94,3.7 6.3,3.86 			"/>
		</g>
		<g class="st0">
			<defs>
				<path id="SVGID_73_" class="st0" d="M6.34,3.13L5.98,2.96C6.17,2.94,6.31,2.88,6.4,2.78l0.36,0.16C6.67,3.04,6.53,3.1,6.34,3.13
					z"/>
			</defs>
			<clipPath id="SVGID_74_">
				<use xlink:href="#SVGID_73_"  style="overflow:visible;"/>
			</clipPath>
			<g class="st61">
				<path class="st5" d="M6.34,3.13L5.98,2.96C6.07,2.95,6.14,2.93,6.2,2.91l0.36,0.16C6.5,3.09,6.42,3.11,6.34,3.13"/>
				<path class="st6" d="M6.56,3.07L6.2,2.91C6.23,2.9,6.26,2.88,6.29,2.87l0.36,0.16C6.62,3.04,6.59,3.06,6.56,3.07"/>
				<path class="st7" d="M6.65,3.03L6.29,2.87c0.02-0.01,0.04-0.02,0.05-0.04L6.7,2.99C6.69,3,6.67,3.02,6.65,3.03"/>
				<path class="st8" d="M6.7,2.99L6.35,2.83C6.36,2.82,6.37,2.81,6.39,2.8l0.36,0.16C6.73,2.97,6.72,2.98,6.7,2.99"/>
				<path class="st9" d="M6.75,2.96L6.39,2.8c0,0,0.01-0.01,0.01-0.01l0.36,0.16C6.75,2.95,6.75,2.95,6.75,2.96"/>
			</g>
		</g>
		<g class="st0">
			<defs>
				<path id="SVGID_75_" class="st0" d="M6.32,2.1l0.36,0.16C6.7,2.27,6.72,2.28,6.74,2.3c0.09,0.07,0.14,0.17,0.15,0.3
					c0.01,0.14-0.04,0.25-0.13,0.34L6.4,2.78c0.09-0.09,0.13-0.21,0.13-0.34C6.52,2.31,6.47,2.2,6.38,2.14
					C6.36,2.12,6.34,2.11,6.32,2.1z"/>
			</defs>
			<clipPath id="SVGID_76_">
				<use xlink:href="#SVGID_75_"  style="overflow:visible;"/>
			</clipPath>
			<g class="st62">
				<path class="st9" d="M6.76,2.94L6.4,2.78c0.01-0.01,0.02-0.02,0.02-0.02l0.36,0.16C6.77,2.93,6.77,2.94,6.76,2.94"/>
				<path class="st11" d="M6.78,2.92L6.42,2.76c0.01-0.01,0.02-0.03,0.03-0.05l0.36,0.16C6.81,2.89,6.79,2.9,6.78,2.92"/>
				<path class="st12" d="M6.82,2.87L6.46,2.71c0.01-0.02,0.02-0.04,0.03-0.06l0.36,0.16C6.84,2.83,6.83,2.85,6.82,2.87"/>
				<path class="st2" d="M6.85,2.81L6.49,2.65c0.03-0.06,0.04-0.14,0.04-0.22C6.52,2.31,6.47,2.2,6.38,2.14
					C6.36,2.12,6.34,2.11,6.32,2.1l0.36,0.16C6.7,2.27,6.72,2.28,6.74,2.3c0.09,0.07,0.14,0.17,0.15,0.3
					C6.89,2.68,6.88,2.75,6.85,2.81"/>
			</g>
		</g>
		<g class="st0">
			<defs>
				<path id="SVGID_77_" class="st0" d="M4.72,5.35L4.36,5.19c-0.01,0-0.01-0.01-0.02-0.01C4.32,5.16,4.3,5.13,4.3,5.09l0.36,0.16
					c0,0.04,0.02,0.07,0.05,0.09C4.71,5.34,4.72,5.35,4.72,5.35z"/>
			</defs>
			<clipPath id="SVGID_78_">
				<use xlink:href="#SVGID_77_"  style="overflow:visible;"/>
			</clipPath>
			<g class="st63">
				<path class="st2" d="M4.72,5.35L4.36,5.19c-0.01,0-0.01-0.01-0.02-0.01C4.32,5.16,4.3,5.13,4.3,5.09l0.36,0.16
					c0,0.04,0.02,0.07,0.05,0.09C4.71,5.34,4.72,5.35,4.72,5.35"/>
			</g>
		</g>
		<g>
			<polygon class="st14" points="5.65,3.23 5.29,3.07 5.98,2.96 6.34,3.13 			"/>
		</g>
		<g class="st0">
			<defs>
				<path id="SVGID_79_" class="st0" d="M7.1,1.46l0.36,0.16C7.19,1.49,6.84,1.46,6.41,1.51C6.37,1.51,6.32,1.52,6.28,1.53
					L5.92,1.36c0.04-0.01,0.09-0.01,0.13-0.02C6.48,1.3,6.83,1.33,7.1,1.46z"/>
			</defs>
			<clipPath id="SVGID_80_">
				<use xlink:href="#SVGID_79_"  style="overflow:visible;"/>
			</clipPath>
			<g class="st64">
				<path class="st5" d="M6.28,1.53L5.92,1.36c0.04-0.01,0.09-0.01,0.13-0.02C6.34,1.31,6.6,1.32,6.82,1.37l0.36,0.16
					C6.96,1.48,6.7,1.47,6.41,1.51C6.37,1.51,6.32,1.52,6.28,1.53"/>
				<path class="st6" d="M7.18,1.53L6.82,1.37c0.08,0.02,0.16,0.04,0.24,0.07L7.42,1.6C7.34,1.57,7.26,1.55,7.18,1.53"/>
				<path class="st7" d="M7.42,1.6L7.06,1.44C7.07,1.44,7.09,1.45,7.1,1.46l0.36,0.16C7.45,1.61,7.43,1.61,7.42,1.6"/>
			</g>
		</g>
		<g>
			<polygon class="st14" points="4.65,1.77 4.29,1.61 5.92,1.36 6.28,1.53 			"/>
		</g>
		<g>
			<polygon class="st65" points="4.66,5.26 4.3,5.09 4.14,1.76 4.5,1.92 			"/>
		</g>
		<g class="st0">
			<defs>
				<path id="SVGID_81_" class="st0" d="M4.5,1.92L4.14,1.76c0-0.04,0.01-0.07,0.04-0.1c0.03-0.03,0.06-0.05,0.11-0.05l0.36,0.16
					C4.6,1.78,4.57,1.8,4.54,1.82C4.51,1.85,4.5,1.89,4.5,1.92z"/>
			</defs>
			<clipPath id="SVGID_82_">
				<use xlink:href="#SVGID_81_"  style="overflow:visible;"/>
			</clipPath>
			<g class="st66">
				<path class="st2" d="M4.5,1.92L4.14,1.76c0-0.02,0-0.04,0.01-0.06l0.36,0.16C4.51,1.88,4.5,1.9,4.5,1.92"/>
				<path class="st12" d="M4.51,1.86L4.16,1.7c0-0.01,0.01-0.01,0.01-0.02l0.36,0.16C4.52,1.85,4.52,1.86,4.51,1.86"/>
				<path class="st11" d="M4.52,1.85L4.17,1.69c0-0.01,0.01-0.01,0.01-0.01l0.36,0.16C4.53,1.84,4.53,1.84,4.52,1.85"/>
				<polyline class="st9" points="4.53,1.83 4.18,1.67 4.18,1.66 4.19,1.66 4.55,1.82 4.54,1.82 4.53,1.83 				"/>
				<path class="st8" d="M4.55,1.82L4.19,1.66c0,0,0.01-0.01,0.01-0.01l0.36,0.16C4.56,1.81,4.55,1.81,4.55,1.82"/>
				<path class="st7" d="M4.56,1.81L4.2,1.65c0.01,0,0.01-0.01,0.02-0.01L4.58,1.8C4.57,1.8,4.57,1.8,4.56,1.81"/>
				<path class="st6" d="M4.58,1.8L4.22,1.63c0.01,0,0.02-0.01,0.02-0.01L4.6,1.78C4.59,1.79,4.59,1.79,4.58,1.8"/>
				<path class="st5" d="M4.6,1.78L4.24,1.62c0.01-0.01,0.03-0.01,0.05-0.01l0.36,0.16C4.63,1.78,4.62,1.78,4.6,1.78"/>
			</g>
		</g>
		<g>
			<path class="st21" d="M8.21,4.74c0,0.03-0.01,0.05-0.04,0.08C8.14,4.84,8.11,4.86,8.08,4.86L7.29,4.99c-0.01,0-0.01,0-0.02,0
				C7.2,5,7.15,4.99,7.12,4.96C7.08,4.94,7.05,4.91,7.03,4.88L6.3,3.86L5.68,3.95l0.05,1.14c0,0.04-0.01,0.07-0.04,0.1
				C5.67,5.22,5.63,5.24,5.59,5.24L4.81,5.36c-0.05,0.01-0.08,0-0.11-0.02C4.67,5.32,4.66,5.29,4.66,5.26L4.5,1.92
				c0-0.04,0.01-0.07,0.04-0.1C4.57,1.8,4.6,1.78,4.65,1.77l1.63-0.25c0.04-0.01,0.09-0.01,0.13-0.02c0.45-0.05,0.82-0.01,1.1,0.14
				C7.82,1.8,7.99,2.07,8,2.44C8.01,2.68,7.95,2.9,7.82,3.09C7.69,3.28,7.52,3.43,7.3,3.55l0.89,1.14C8.2,4.7,8.2,4.72,8.21,4.74z
				 M6.76,2.94C6.85,2.85,6.89,2.74,6.89,2.6C6.88,2.47,6.83,2.37,6.74,2.3C6.65,2.23,6.52,2.21,6.35,2.23c-0.02,0-0.03,0-0.05,0.01
				L5.6,2.35l0.04,0.89l0.7-0.11C6.53,3.1,6.67,3.04,6.76,2.94"/>
		</g>
	</g>
	<g class="st0">
		<g class="st0">
			<defs>
				<path id="SVGID_83_" class="st0" d="M1.79,4.88L1.43,4.72c0.12,0.05,0.26,0.07,0.42,0.05c0.21-0.02,0.39-0.1,0.52-0.23
					C2.51,4.42,2.58,4.24,2.59,4l0.36,0.16C2.94,4.4,2.87,4.58,2.73,4.71C2.6,4.83,2.42,4.91,2.21,4.93
					C2.05,4.95,1.91,4.94,1.79,4.88z"/>
			</defs>
			<clipPath id="SVGID_84_">
				<use xlink:href="#SVGID_83_"  style="overflow:visible;"/>
			</clipPath>
			<g class="st67">
				<path class="st7" d="M1.79,4.88L1.43,4.72c0.01,0,0.01,0.01,0.02,0.01l0.36,0.16C1.81,4.89,1.8,4.89,1.79,4.88"/>
				<path class="st6" d="M1.81,4.89L1.45,4.73c0.03,0.01,0.07,0.02,0.1,0.03l0.36,0.16C1.88,4.92,1.84,4.91,1.81,4.89"/>
				<path class="st5" d="M1.92,4.92L1.56,4.76c0.09,0.02,0.19,0.02,0.3,0.01c0.09-0.01,0.18-0.03,0.26-0.06l0.36,0.16
					C2.39,4.9,2.31,4.92,2.21,4.93C2.1,4.95,2,4.94,1.92,4.92"/>
				<path class="st6" d="M2.47,4.87L2.11,4.71c0.04-0.02,0.08-0.03,0.11-0.05l0.36,0.16C2.55,4.84,2.51,4.86,2.47,4.87"/>
				<path class="st7" d="M2.58,4.82L2.23,4.66C2.25,4.64,2.28,4.62,2.31,4.6l0.36,0.16C2.64,4.78,2.61,4.8,2.58,4.82"/>
				<path class="st8" d="M2.66,4.77L2.31,4.6c0.02-0.02,0.05-0.04,0.07-0.06l0.36,0.16C2.71,4.73,2.69,4.75,2.66,4.77"/>
				<path class="st9" d="M2.73,4.71L2.37,4.55c0,0,0,0,0,0C2.39,4.53,2.41,4.52,2.42,4.5l0.36,0.16C2.76,4.68,2.75,4.69,2.73,4.71
					C2.73,4.71,2.73,4.71,2.73,4.71"/>
				<path class="st11" d="M2.78,4.66L2.42,4.5c0.02-0.02,0.03-0.04,0.05-0.06L2.82,4.6C2.81,4.62,2.8,4.64,2.78,4.66"/>
				<path class="st12" d="M2.82,4.6L2.47,4.44C2.48,4.41,2.5,4.38,2.51,4.35l0.36,0.16C2.86,4.54,2.84,4.57,2.82,4.6"/>
				<path class="st2" d="M2.87,4.51L2.51,4.35C2.56,4.25,2.58,4.13,2.59,4l0.36,0.16C2.94,4.29,2.92,4.41,2.87,4.51"/>
			</g>
		</g>
		<g class="st0">
			<defs>
				<polygon id="SVGID_85_" class="st0" points="1.69,3.85 2.05,4.01 2.06,4.01 1.7,3.85 				"/>
			</defs>
			<clipPath id="SVGID_86_">
				<use xlink:href="#SVGID_85_"  style="overflow:visible;"/>
			</clipPath>
			<g class="st68">
				<polyline class="st2" points="2.06,4.01 1.7,3.85 1.69,3.85 2.05,4.01 2.06,4.01 				"/>
			</g>
		</g>
		<g class="st0">
			<defs>
				<path id="SVGID_87_" class="st0" d="M2.04,4.01L1.68,3.85C1.67,3.83,1.65,3.82,1.63,3.8l0.36,0.16
					C2.01,3.98,2.03,3.99,2.04,4.01z"/>
			</defs>
			<clipPath id="SVGID_88_">
				<use xlink:href="#SVGID_87_"  style="overflow:visible;"/>
			</clipPath>
			<g class="st69">
				<path class="st2" d="M2.04,4.01L1.68,3.85C1.67,3.83,1.65,3.82,1.63,3.8l0.36,0.16C2.01,3.98,2.03,3.99,2.04,4.01"/>
			</g>
		</g>
		<g class="st0">
			<defs>
				<polygon id="SVGID_89_" class="st0" points="1.62,3.8 1.98,3.96 1.99,3.97 1.63,3.8 				"/>
			</defs>
			<clipPath id="SVGID_90_">
				<use xlink:href="#SVGID_89_"  style="overflow:visible;"/>
			</clipPath>
			<g class="st70">
				<polyline class="st2" points="1.99,3.97 1.63,3.8 1.62,3.8 1.98,3.96 1.99,3.97 				"/>
			</g>
		</g>
		<g class="st0">
			<defs>
				<path id="SVGID_91_" class="st0" d="M2.28,2.59l0.36,0.16c0.08,0.04,0.15,0.1,0.2,0.18c0.06,0.09,0.1,0.22,0.1,0.38
					c0.01,0.14,0.01,0.28,0.01,0.42c0,0.13,0,0.28-0.01,0.43L2.59,4C2.6,3.84,2.6,3.7,2.6,3.57c0-0.13,0-0.27-0.01-0.42
					c-0.01-0.16-0.04-0.29-0.1-0.38C2.43,2.69,2.37,2.63,2.28,2.59z"/>
			</defs>
			<clipPath id="SVGID_92_">
				<use xlink:href="#SVGID_91_"  style="overflow:visible;"/>
			</clipPath>
			<g class="st71">
				<path class="st2" d="M2.95,4.16L2.59,4C2.6,3.84,2.6,3.7,2.6,3.57c0-0.13,0-0.27-0.01-0.42c-0.01-0.16-0.04-0.29-0.1-0.38
					c-0.05-0.08-0.12-0.14-0.2-0.18l0.36,0.16c0.08,0.04,0.15,0.1,0.2,0.18c0.06,0.09,0.1,0.22,0.1,0.38
					c0.01,0.14,0.01,0.28,0.01,0.42C2.96,3.86,2.95,4.01,2.95,4.16"/>
			</g>
		</g>
		<g>
			<polygon class="st72" points="2.43,3.05 2.07,2.89 2.07,2.89 2.43,3.05 			"/>
		</g>
		<g class="st0">
			<defs>
				<path id="SVGID_93_" class="st0" d="M2.06,2.88l0.36,0.16C2.39,3.03,2.36,3.02,2.33,3.01L1.97,2.85C2,2.86,2.03,2.87,2.06,2.88z
					"/>
			</defs>
			<clipPath id="SVGID_94_">
				<use xlink:href="#SVGID_93_"  style="overflow:visible;"/>
			</clipPath>
			<g class="st73">
				<path class="st5" d="M2.33,3.01L1.97,2.85c0,0,0.01,0,0.01,0l0.36,0.16C2.34,3.02,2.33,3.01,2.33,3.01"/>
				<path class="st6" d="M2.34,3.02L1.98,2.85c0.02,0,0.04,0.01,0.05,0.02L2.4,3.03C2.38,3.03,2.36,3.02,2.34,3.02"/>
				<path class="st7" d="M2.4,3.03L2.04,2.87c0.01,0,0.01,0,0.02,0.01l0.36,0.16C2.41,3.04,2.4,3.04,2.4,3.03"/>
			</g>
		</g>
		<g class="st0">
			<defs>
				<polygon id="SVGID_95_" class="st0" points="2.32,3.01 1.97,2.85 1.97,2.85 2.33,3.01 				"/>
			</defs>
			<clipPath id="SVGID_96_">
				<use xlink:href="#SVGID_95_"  style="overflow:visible;"/>
			</clipPath>
			<g class="st74">
				<polyline class="st7" points="2.32,3.01 1.97,2.85 1.97,2.85 2.32,3.01 2.32,3.01 				"/>
				<polyline class="st6" points="2.32,3.01 1.97,2.85 1.97,2.85 2.33,3.01 2.32,3.01 				"/>
				<polyline class="st5" points="2.33,3.01 1.97,2.85 1.97,2.85 2.33,3.01 2.33,3.01 				"/>
			</g>
		</g>
		<g class="st0">
			<defs>
				<path id="SVGID_97_" class="st0" d="M1.98,3.96L1.62,3.8c-0.04-0.04-0.07-0.08-0.1-0.12C1.5,3.64,1.49,3.6,1.47,3.56l0.36,0.16
					C1.85,3.76,1.86,3.8,1.88,3.84C1.91,3.88,1.94,3.92,1.98,3.96z"/>
			</defs>
			<clipPath id="SVGID_98_">
				<use xlink:href="#SVGID_97_"  style="overflow:visible;"/>
			</clipPath>
			<g class="st75">
				<path class="st2" d="M1.98,3.96L1.62,3.8c-0.04-0.04-0.07-0.08-0.1-0.12C1.5,3.64,1.49,3.6,1.47,3.56l0.36,0.16
					C1.85,3.76,1.86,3.8,1.88,3.84C1.91,3.88,1.94,3.92,1.98,3.96"/>
			</g>
		</g>
		<g class="st0">
			<defs>
				<path id="SVGID_99_" class="st0" d="M1.83,3.73L1.47,3.56C1.47,3.54,1.46,3.52,1.45,3.5l0.36,0.16
					C1.82,3.68,1.83,3.71,1.83,3.73z"/>
			</defs>
			<clipPath id="SVGID_100_">
				<use xlink:href="#SVGID_99_"  style="overflow:visible;"/>
			</clipPath>
			<g class="st76">
				<path class="st2" d="M1.83,3.73L1.47,3.56C1.47,3.54,1.46,3.52,1.45,3.5l0.36,0.16C1.82,3.68,1.83,3.71,1.83,3.73"/>
			</g>
		</g>
		<g class="st0">
			<defs>
				<path id="SVGID_101_" class="st0" d="M1.81,3.67L1.45,3.5c0-0.02-0.01-0.04-0.01-0.06L1.8,3.6C1.8,3.62,1.81,3.64,1.81,3.67z"/>
			</defs>
			<clipPath id="SVGID_102_">
				<use xlink:href="#SVGID_101_"  style="overflow:visible;"/>
			</clipPath>
			<g class="st77">
				<path class="st2" d="M1.81,3.67L1.45,3.5c0-0.02-0.01-0.04-0.01-0.06L1.8,3.6C1.8,3.62,1.81,3.64,1.81,3.67"/>
			</g>
		</g>
		<g class="st0">
			<defs>
				<path id="SVGID_103_" class="st0" d="M1.8,3.6L1.44,3.44c0-0.01,0-0.03,0-0.04L1.8,3.56C1.8,3.58,1.8,3.59,1.8,3.6z"/>
			</defs>
			<clipPath id="SVGID_104_">
				<use xlink:href="#SVGID_103_"  style="overflow:visible;"/>
			</clipPath>
			<g class="st78">
				<path class="st2" d="M1.8,3.6L1.44,3.44c0-0.01,0-0.03,0-0.04L1.8,3.56C1.8,3.58,1.8,3.59,1.8,3.6"/>
			</g>
		</g>
		<g class="st0">
			<defs>
				<path id="SVGID_105_" class="st0" d="M1.8,3.56L1.44,3.4c0-0.01,0-0.01,0-0.02l0.36,0.16C1.8,3.55,1.8,3.55,1.8,3.56z"/>
			</defs>
			<clipPath id="SVGID_106_">
				<use xlink:href="#SVGID_105_"  style="overflow:visible;"/>
			</clipPath>
			<g class="st79">
				<path class="st2" d="M1.8,3.56L1.44,3.4c0-0.01,0-0.01,0-0.02l0.36,0.16C1.8,3.55,1.8,3.55,1.8,3.56"/>
			</g>
		</g>
		<g>
			<polygon class="st80" points="1.79,3.54 1.43,3.38 1.43,3.37 1.79,3.53 			"/>
		</g>
		<g class="st0">
			<defs>
				<path id="SVGID_107_" class="st0" d="M1.79,3.53L1.43,3.37c0-0.02,0-0.03,0-0.04L1.8,3.49C1.8,3.5,1.8,3.52,1.79,3.53z"/>
			</defs>
			<clipPath id="SVGID_108_">
				<use xlink:href="#SVGID_107_"  style="overflow:visible;"/>
			</clipPath>
			<g class="st81">
				<path class="st2" d="M1.79,3.53L1.43,3.37c0-0.02,0-0.03,0-0.04L1.8,3.49C1.8,3.5,1.8,3.52,1.79,3.53"/>
			</g>
		</g>
		<g>
			<polygon class="st58" points="1.8,3.49 1.44,3.33 1.44,3.32 1.8,3.48 			"/>
		</g>
		<g class="st0">
			<defs>
				<path id="SVGID_109_" class="st0" d="M1.8,3.48L1.44,3.32c0-0.02,0.01-0.04,0.01-0.06L1.8,3.42C1.8,3.44,1.8,3.46,1.8,3.48z"/>
			</defs>
			<clipPath id="SVGID_110_">
				<use xlink:href="#SVGID_109_"  style="overflow:visible;"/>
			</clipPath>
			<g class="st82">
				<path class="st2" d="M1.8,3.48L1.44,3.32c0-0.02,0.01-0.04,0.01-0.06L1.8,3.42C1.8,3.44,1.8,3.46,1.8,3.48"/>
			</g>
		</g>
		<g class="st0">
			<defs>
				<path id="SVGID_111_" class="st0" d="M2.1,2.99L1.74,2.83c0-0.02,0-0.04,0-0.06L2.1,2.94C2.1,2.95,2.1,2.97,2.1,2.99z"/>
			</defs>
			<clipPath id="SVGID_112_">
				<use xlink:href="#SVGID_111_"  style="overflow:visible;"/>
			</clipPath>
			<g class="st83">
				<path class="st2" d="M2.1,2.99L1.74,2.83c0-0.02,0-0.04,0-0.06L2.1,2.94C2.1,2.95,2.1,2.97,2.1,2.99"/>
			</g>
		</g>
		<g class="st0">
			<defs>
				<path id="SVGID_113_" class="st0" d="M1.8,3.42L1.44,3.26c0.01-0.02,0.01-0.04,0.02-0.07l0.36,0.16C1.82,3.37,1.81,3.4,1.8,3.42
					z"/>
			</defs>
			<clipPath id="SVGID_114_">
				<use xlink:href="#SVGID_113_"  style="overflow:visible;"/>
			</clipPath>
			<g class="st84">
				<path class="st2" d="M1.8,3.42L1.44,3.26c0.01-0.02,0.01-0.04,0.02-0.07l0.36,0.16C1.82,3.37,1.81,3.4,1.8,3.42"/>
			</g>
		</g>
		<g class="st0">
			<defs>
				<path id="SVGID_115_" class="st0" d="M1.97,3.13L1.61,2.97c0.01-0.01,0.02-0.02,0.04-0.03C1.66,2.92,1.68,2.91,1.7,2.9
					c0.04-0.02,0.04-0.02,0.04-0.07L2.1,2.99c0,0.04,0,0.04-0.04,0.07C2.04,3.07,2.02,3.08,2.01,3.1C1.99,3.11,1.98,3.12,1.97,3.13z
					"/>
			</defs>
			<clipPath id="SVGID_116_">
				<use xlink:href="#SVGID_115_"  style="overflow:visible;"/>
			</clipPath>
			<g class="st85">
				<path class="st8" d="M1.97,3.13L1.61,2.97c0.01-0.01,0.02-0.02,0.04-0.03c0,0,0,0,0,0l0.36,0.16c0,0,0,0,0,0
					C1.99,3.11,1.98,3.12,1.97,3.13"/>
				<path class="st7" d="M2.01,3.09L1.65,2.93C1.66,2.92,1.68,2.91,1.69,2.9l0.36,0.16C2.04,3.07,2.02,3.08,2.01,3.09"/>
				<path class="st6" d="M2.05,3.06L1.69,2.9c0,0,0,0,0.01,0c0.01,0,0.01-0.01,0.01-0.01l0.36,0.16C2.07,3.05,2.07,3.06,2.05,3.06
					C2.06,3.06,2.06,3.06,2.05,3.06"/>
				<path class="st7" d="M2.07,3.05L1.72,2.89c0.01,0,0.01-0.01,0.01-0.01l0.36,0.16C2.08,3.05,2.08,3.05,2.07,3.05"/>
				<polyline class="st8" points="2.09,3.04 1.73,2.88 1.73,2.88 2.09,3.04 2.09,3.04 				"/>
				<polyline class="st9" points="2.09,3.04 1.73,2.88 1.74,2.88 2.09,3.04 2.09,3.04 				"/>
				<polyline class="st11" points="2.09,3.04 1.74,2.88 1.74,2.87 2.1,3.04 2.09,3.04 				"/>
				<polyline class="st12" points="2.1,3.04 1.74,2.87 1.74,2.87 2.1,3.03 2.1,3.04 				"/>
				<path class="st2" d="M2.1,3.03L1.74,2.87c0-0.01,0-0.02,0-0.04L2.1,2.99C2.1,3.01,2.1,3.02,2.1,3.03"/>
			</g>
		</g>
		<g>
			<polygon class="st58" points="2.1,2.94 1.74,2.77 1.74,2.76 2.1,2.93 			"/>
		</g>
		<g class="st0">
			<defs>
				<path id="SVGID_117_" class="st0" d="M1.95,3.14L1.59,2.98c0.01,0,0.01-0.01,0.02-0.01l0.36,0.16C1.96,3.13,1.96,3.14,1.95,3.14
					z"/>
			</defs>
			<clipPath id="SVGID_118_">
				<use xlink:href="#SVGID_117_"  style="overflow:visible;"/>
			</clipPath>
			<g class="st86">
				<polyline class="st6" points="1.95,3.14 1.59,2.98 1.59,2.98 1.95,3.14 1.95,3.14 				"/>
				<polyline class="st7" points="1.95,3.14 1.59,2.98 1.6,2.98 1.96,3.14 1.95,3.14 				"/>
				<polyline class="st8" points="1.96,3.14 1.6,2.98 1.6,2.97 1.96,3.13 1.96,3.14 				"/>
				<polyline class="st9" points="1.96,3.13 1.6,2.97 1.61,2.97 1.96,3.13 1.96,3.13 				"/>
				<polyline class="st11" points="1.96,3.13 1.61,2.97 1.61,2.97 1.97,3.13 1.96,3.13 				"/>
				<polyline class="st12" points="1.97,3.13 1.61,2.97 1.61,2.97 1.97,3.13 1.97,3.13 				"/>
			</g>
		</g>
		<g class="st0">
			<defs>
				<path id="SVGID_119_" class="st0" d="M1.9,3.2L1.54,3.04C1.56,3.02,1.58,3,1.59,2.98l0.36,0.16C1.94,3.16,1.92,3.18,1.9,3.2z"/>
			</defs>
			<clipPath id="SVGID_120_">
				<use xlink:href="#SVGID_119_"  style="overflow:visible;"/>
			</clipPath>
			<g class="st87">
				<path class="st9" d="M1.9,3.2L1.54,3.04C1.56,3.02,1.58,3,1.59,2.98l0.36,0.16C1.94,3.16,1.92,3.18,1.9,3.2"/>
			</g>
		</g>
		<g class="st0">
			<defs>
				<path id="SVGID_121_" class="st0" d="M1.82,3.35L1.46,3.19c0.02-0.05,0.04-0.1,0.07-0.14c0,0,0.01-0.01,0.01-0.01L1.9,3.2
					c0,0-0.01,0.01-0.01,0.01C1.86,3.26,1.84,3.3,1.82,3.35z"/>
			</defs>
			<clipPath id="SVGID_122_">
				<use xlink:href="#SVGID_121_"  style="overflow:visible;"/>
			</clipPath>
			<g class="st88">
				<path class="st2" d="M1.82,3.35L1.46,3.19c0.01-0.02,0.01-0.03,0.02-0.05l0.36,0.16C1.83,3.32,1.83,3.34,1.82,3.35"/>
				<path class="st12" d="M1.84,3.31L1.48,3.14C1.5,3.11,1.51,3.09,1.53,3.06l0.36,0.16C1.87,3.25,1.85,3.28,1.84,3.31"/>
				<path class="st11" d="M1.89,3.22L1.53,3.06c0,0,0,0,0-0.01c0,0,0.01-0.01,0.01-0.01L1.9,3.2C1.9,3.2,1.9,3.21,1.89,3.22
					C1.89,3.21,1.89,3.22,1.89,3.22"/>
			</g>
		</g>
		<g class="st0">
			<defs>
				<path id="SVGID_123_" class="st0" d="M2.1,2.93L1.74,2.76c0-0.02,0-0.04,0-0.06c0-0.02,0-0.04,0-0.06c0-0.02,0-0.04,0-0.07
					l0.36,0.16c0,0.02,0,0.04,0,0.07c0,0.02,0,0.04,0,0.06C2.1,2.89,2.1,2.91,2.1,2.93z"/>
			</defs>
			<clipPath id="SVGID_124_">
				<use xlink:href="#SVGID_123_"  style="overflow:visible;"/>
			</clipPath>
			<g class="st89">
				<path class="st2" d="M2.1,2.93L1.74,2.76c0-0.02,0-0.04,0-0.06c0-0.02,0-0.04,0-0.06c0-0.02,0-0.04,0-0.07l0.36,0.16
					c0,0.02,0,0.04,0,0.07c0,0.02,0,0.04,0,0.06C2.1,2.89,2.1,2.91,2.1,2.93"/>
			</g>
		</g>
		<g>
			<polygon class="st20" points="2.09,2.74 1.73,2.58 1.73,2.57 2.09,2.73 			"/>
		</g>
		<g class="st0">
			<defs>
				<path id="SVGID_125_" class="st0" d="M1.03,5.56L0.67,5.39C0.5,5.32,0.36,5.21,0.26,5.08C0.1,4.89,0.02,4.64,0,4.33l0.36,0.16
					c0.02,0.31,0.1,0.56,0.25,0.75C0.72,5.38,0.86,5.48,1.03,5.56z"/>
			</defs>
			<clipPath id="SVGID_126_">
				<use xlink:href="#SVGID_125_"  style="overflow:visible;"/>
			</clipPath>
			<g class="st90">
				<path class="st2" d="M1.03,5.56L0.67,5.39C0.5,5.32,0.36,5.21,0.26,5.08C0.1,4.89,0.02,4.64,0,4.33l0.36,0.16
					c0.02,0.31,0.1,0.56,0.25,0.75C0.72,5.38,0.86,5.48,1.03,5.56"/>
			</g>
		</g>
		<g class="st0">
			<defs>
				<path id="SVGID_127_" class="st0" d="M0.36,4.49L0,4.33C0,4.18,0,4.03,0,3.88c0-0.15,0-0.3,0.01-0.45L0.37,3.6
					c0,0.15-0.01,0.3-0.01,0.45C0.36,4.19,0.36,4.34,0.36,4.49z"/>
			</defs>
			<clipPath id="SVGID_128_">
				<use xlink:href="#SVGID_127_"  style="overflow:visible;"/>
			</clipPath>
			<g class="st91">
				<path class="st2" d="M0.36,4.49L0,4.33C0,4.18,0,4.03,0,3.88c0-0.15,0-0.3,0.01-0.45L0.37,3.6c0,0.15-0.01,0.3-0.01,0.45
					C0.36,4.19,0.36,4.34,0.36,4.49"/>
			</g>
		</g>
		<g class="st0">
			<defs>
				<path id="SVGID_129_" class="st0" d="M3.03,1.93l0.36,0.16C3.32,2.06,3.25,2.03,3.17,2.01C2.9,1.94,2.58,1.92,2.22,1.96
					C1.85,2,1.54,2.1,1.26,2.23C0.99,2.37,0.78,2.56,0.62,2.78C0.47,3.01,0.38,3.28,0.37,3.6L0.01,3.43
					c0.02-0.31,0.1-0.58,0.26-0.81C0.42,2.39,0.63,2.21,0.9,2.07C1.18,1.93,1.5,1.84,1.86,1.8c0.36-0.04,0.68-0.03,0.95,0.05
					C2.89,1.87,2.96,1.9,3.03,1.93z"/>
			</defs>
			<clipPath id="SVGID_130_">
				<use xlink:href="#SVGID_129_"  style="overflow:visible;"/>
			</clipPath>
			<g class="st92">
				<path class="st2" d="M0.37,3.6L0.01,3.43c0.01-0.22,0.06-0.42,0.14-0.59L0.5,3C0.42,3.18,0.38,3.38,0.37,3.6"/>
				<path class="st12" d="M0.5,3L0.14,2.84c0.03-0.07,0.07-0.14,0.11-0.2L0.61,2.8C0.57,2.87,0.53,2.93,0.5,3"/>
				<path class="st11" d="M0.61,2.8L0.25,2.64c0-0.01,0.01-0.01,0.01-0.02c0.03-0.05,0.07-0.09,0.1-0.14l0.36,0.16
					c-0.04,0.04-0.07,0.09-0.1,0.14C0.62,2.79,0.61,2.8,0.61,2.8"/>
				<path class="st9" d="M0.73,2.65L0.37,2.49C0.4,2.44,0.45,2.4,0.49,2.36l0.36,0.16C0.8,2.56,0.76,2.6,0.73,2.65"/>
				<path class="st8" d="M0.85,2.52L0.49,2.36c0.04-0.04,0.09-0.08,0.14-0.12L0.99,2.4C0.94,2.44,0.89,2.48,0.85,2.52"/>
				<path class="st7" d="M0.99,2.4L0.63,2.24C0.69,2.2,0.75,2.16,0.82,2.12l0.36,0.16C1.11,2.32,1.05,2.36,0.99,2.4"/>
				<path class="st6" d="M1.18,2.28L0.82,2.12C0.85,2.1,0.87,2.09,0.9,2.07c0.07-0.03,0.13-0.06,0.21-0.09l0.36,0.16
					C1.4,2.17,1.33,2.2,1.26,2.23C1.23,2.25,1.2,2.26,1.18,2.28"/>
				<path class="st5" d="M1.47,2.14L1.11,1.98C1.33,1.89,1.58,1.83,1.86,1.8c0.32-0.04,0.6-0.03,0.85,0.03l0.36,0.16
					C2.82,1.93,2.54,1.93,2.22,1.96C1.94,1.99,1.69,2.05,1.47,2.14"/>
				<path class="st6" d="M3.07,1.99L2.71,1.83c0.03,0.01,0.07,0.02,0.1,0.02c0.06,0.02,0.12,0.04,0.17,0.06l0.36,0.16
					C3.29,2.05,3.23,2.03,3.17,2.01C3.14,2,3.11,1.99,3.07,1.99"/>
				<path class="st7" d="M3.34,2.07L2.98,1.91C3,1.91,3.01,1.92,3.03,1.93l0.36,0.16C3.37,2.08,3.36,2.08,3.34,2.07"/>
			</g>
		</g>
		<g>
			<path class="st21" d="M4.07,3.17c0.01,0.15,0.01,0.3,0.01,0.45c0,0.15,0,0.3-0.01,0.44c-0.02,0.31-0.1,0.59-0.25,0.81
				C3.66,5.09,3.44,5.28,3.17,5.41C2.9,5.55,2.58,5.63,2.21,5.68C1.84,5.72,1.52,5.71,1.25,5.63c-0.27-0.07-0.48-0.2-0.64-0.39
				C0.46,5.05,0.38,4.8,0.36,4.49c0-0.15-0.01-0.3,0-0.44c0-0.15,0-0.3,0.01-0.45c0.02-0.31,0.1-0.58,0.26-0.81
				c0.15-0.23,0.37-0.41,0.64-0.55C1.54,2.1,1.85,2,2.22,1.96C2.58,1.92,2.9,1.94,3.17,2.01c0.27,0.07,0.49,0.21,0.64,0.4
				C3.97,2.61,4.05,2.86,4.07,3.17z M2.95,4.16c0.01-0.15,0.01-0.3,0.01-0.43c0-0.13,0-0.27-0.01-0.42
				c-0.01-0.16-0.04-0.29-0.1-0.38C2.78,2.83,2.7,2.77,2.59,2.73C2.51,2.71,2.41,2.69,2.31,2.7c0,0,0,0.01,0,0.01
				c0,0.02,0,0.04,0,0.06c0,0.02,0,0.04,0,0.06c0,0.02,0,0.04,0,0.06c0,0.02,0,0.04,0,0.06c0,0.01,0,0.03,0,0.04
				c0,0.01,0,0.01,0.01,0.01c0.04,0.01,0.07,0.02,0.1,0.03l0.01,0c0.01,0.01,0.03,0.02,0.04,0.03C2.49,3.08,2.5,3.09,2.51,3.1
				c0.01,0.01,0.02,0.02,0.02,0.02c0.02,0.02,0.03,0.04,0.05,0.06C2.59,3.2,2.6,3.22,2.61,3.24c0.02,0.05,0.03,0.1,0.04,0.16
				c0,0,0,0.01,0,0.01l0,0.02l0,0.04c0,0.01,0,0.01,0,0.02c0,0.01,0,0.01,0,0.02c0,0.01,0,0.01,0,0.02l0,0.01
				C2.63,3.57,2.62,3.59,2.62,3.61C2.61,3.63,2.61,3.65,2.6,3.67C2.59,3.69,2.59,3.7,2.58,3.72c0,0.01-0.01,0.02-0.01,0.03
				C2.56,3.77,2.54,3.8,2.53,3.82c-0.01,0-0.01,0.01-0.01,0.01C2.51,3.85,2.49,3.87,2.48,3.89C2.47,3.9,2.46,3.91,2.45,3.92
				C2.44,3.93,2.43,3.94,2.42,3.96C2.41,3.96,2.4,3.97,2.39,3.98C2.37,3.99,2.35,4.01,2.32,4.02C2.3,4.03,2.28,4.04,2.26,4.05
				c-0.02,0-0.03,0-0.05,0.01c-0.02,0-0.05,0-0.07-0.01c-0.01,0-0.01,0-0.02,0C2.1,4.03,2.08,4.02,2.06,4.01
				c0,0-0.01-0.01-0.01-0.01C2.03,3.99,2.01,3.98,1.99,3.97c0,0,0-0.01-0.01-0.01c-0.04-0.04-0.07-0.08-0.1-0.12
				C1.86,3.8,1.85,3.76,1.83,3.73C1.83,3.71,1.82,3.68,1.81,3.67c0-0.02-0.01-0.04-0.01-0.06c0-0.01,0-0.03,0-0.04
				c0-0.01,0-0.01,0-0.02l0-0.01c0-0.02,0-0.03,0-0.04l0-0.01c0-0.02,0.01-0.04,0.01-0.06C1.81,3.4,1.82,3.37,1.82,3.35
				c0.02-0.05,0.04-0.1,0.07-0.14c0,0,0.01-0.01,0.01-0.01c0.02-0.02,0.03-0.04,0.05-0.06c0.01,0,0.01-0.01,0.02-0.01
				C1.98,3.12,1.99,3.11,2.01,3.1c0.02-0.01,0.04-0.03,0.06-0.04C2.1,3.04,2.1,3.04,2.1,2.99c0-0.02,0-0.04,0-0.06l0-0.01
				c0-0.02,0-0.04,0-0.06c0-0.02,0-0.04,0-0.06c0-0.02,0-0.04,0-0.07l0-0.01C2.01,2.75,1.92,2.78,1.85,2.82
				C1.74,2.88,1.66,2.97,1.59,3.07c-0.06,0.11-0.1,0.24-0.11,0.41c0,0.15-0.01,0.28-0.01,0.42c0,0.13,0,0.28,0,0.43
				c0.01,0.24,0.08,0.41,0.22,0.5C1.83,4.92,2,4.96,2.21,4.93c0.21-0.02,0.39-0.1,0.52-0.23C2.87,4.58,2.94,4.4,2.95,4.16"/>
		</g>
	</g>
</g>
</svg>
